<?xml version="1.0" encoding="iso-8859-1"?>
<!-- Generator: Adobe Illustrator 19.0.0, SVG Export Plug-In . SVG Version: 6.00 Build 0)  -->
<svg xmlns="http://www.w3.org/2000/svg" xmlns:xlink="http://www.w3.org/1999/xlink" version="1.1" id="Layer_1" x="0px" y="0px" viewBox="0 0 512 512" style="enable-background:new 0 0 512 512;" xml:space="preserve" width="512" height="512">
<g>
	<path d="M466.508,173.4c-2.083-3.96-4.24-7.839-6.458-11.653c-0.026-0.044-0.051-0.09-0.078-0.133   c-28.392-48.806-67.62-85.553-114.111-106.698c-48.765-22.18-104.921-26.824-162.398-13.433   c-60.797,14.164-121.36,47.283-180.01,98.438c-3.176,2.77-4.292,7.225-2.797,11.164l22.574,59.502l-9.633,76.631   c-0.209,1.757,0.036,3.583,0.731,5.214l29.86,71.43l-12.779,37.15c-0.97,2.816-0.643,5.919,0.894,8.471   c1.536,2.553,4.123,4.295,7.065,4.757l98.304,15.432c5.506,0.862,10.648-2.892,11.512-8.388c0.862-5.497-2.893-10.65-8.388-11.514   l-86.433-13.568l7.78-22.615h59.152c4.664,0,8.719-3.204,9.798-7.743l17.796-74.813c0.712-2.993,0.016-6.15-1.889-8.567   c-1.906-2.417-4.813-3.83-7.89-3.837l-104.109-0.203l8.166-64.966c15.639-19.262,39.96-38.567,68.868-54.586   c4.865-2.694,6.624-8.825,3.929-13.691c-2.696-4.867-8.824-6.627-13.689-3.929c-26.272,14.557-48.524,31.219-65.299,48.788   l-14.986-39.503C129.548,59.016,244.242,30.826,337.523,73.254c40.043,18.213,73.392,48.592,98.727,88.463   c-28.325,9.511-62.539,16.494-105.08,8.436c-0.051-0.01-0.102-0.02-0.151-0.028l-0.038-0.007c-0.034-0.006-0.069-0.013-0.104-0.017   l-57.521-9.988l22.849-40.341c1.502-2.653,1.723-5.845,0.598-8.68c-1.124-2.834-3.473-5.006-6.385-5.907   c-36.632-11.329-79.379-4.198-108.788,3.78c-5.368,1.455-8.539,6.989-7.084,12.357c1.456,5.37,6.992,8.544,12.356,7.085   c32.017-8.685,61.69-11.044,85.186-6.928l-20.245,35.746c-31.689-0.719-57.252,11.611-72.475,35.13   c-16.321,25.215-17.156,59.366-2.126,87.006c16.368,30.098,48.354,47.359,87.757,47.359c0.35,0,0.699-0.018,1.048-0.055   l81.799-8.553h68.158l75.593,45.248c0.168,5.571,0.263,11.189,0.263,16.859c0,32.362-1.039,60.041-13.814,70.968   c-7.683,6.568-20.815,8.286-40.154,5.249l-61.781-9.705l-11.121-60.436c-0.801-4.359-4.358-7.683-8.763-8.184l-52.594-6.002   c-3.095-0.358-6.194,0.751-8.37,2.994c-2.175,2.241-3.187,5.366-2.738,8.457l7.42,51.208L221.191,422.4   c-5.481-0.865-10.647,2.892-11.511,8.388c-0.863,5.496,2.892,10.65,8.387,11.514l91.964,14.444c0.175,0.032,0.351,0.06,0.528,0.083   l124.205,19.51c7.048,1.105,13.555,1.661,19.545,1.661c15.69,0,27.834-3.811,36.825-11.502   C510.463,449.965,512,418.993,512,380.221C512,300.389,496.694,230.803,466.508,173.4   C464.425,169.44,496.694,230.803,466.508,173.4z M113.342,353.441H61.664l-22.936-54.865l87.622,0.171L113.342,353.441z    M314.33,393.607l32.198,3.674l8.489,46.139l-34.25-5.38L314.33,393.607z M264.483,306.574   c-43.164-0.182-62.096-23.135-69.549-36.839c-11.554-21.247-11.027-47.323,1.341-66.433c11.979-18.51,33.295-27.627,60.032-25.705   l64.039,11.12l15.544,110.39L264.483,306.574z M423.957,299.398c-1.563-0.938-3.351-1.431-5.172-1.431h-62.715l-14.905-105.852   c42.589,5.423,76.902-2.669,105.486-12.67c23.975,44.326,39.04,98.548,43.675,159.68L423.957,299.398z"/>
	<path d="M252.557,203.617c-18.521,0-33.591,15.062-33.591,33.575c0,18.513,15.069,33.575,33.591,33.575   c18.522,0,33.592-15.063,33.592-33.575C286.149,218.679,271.078,203.617,252.557,203.617z M252.557,250.622   c-7.416,0-13.448-6.024-13.448-13.43c0-7.405,6.032-13.43,13.448-13.43c7.416,0,13.449,6.024,13.449,13.43   C266.006,244.598,259.973,250.622,252.557,250.622z"/>
	<path d="M181.198,417.334l-0.256-0.057c-5.425-1.199-10.808,2.227-12.01,7.657c-1.202,5.432,2.226,10.809,7.656,12.012l0.256,0.057   c0.732,0.162,1.465,0.24,2.187,0.24c4.619,0,8.783-3.199,9.823-7.897C190.057,423.914,186.629,418.537,181.198,417.334z"/>
	<path d="M139.027,123.555l-0.255,0.113c-5.083,2.26-7.371,8.212-5.113,13.297c1.669,3.753,5.351,5.983,9.21,5.983   c1.365,0,2.755-0.279,4.085-0.87l0.254-0.113c5.083-2.26,7.371-8.212,5.113-13.296   C150.063,123.586,144.114,121.296,139.027,123.555z"/>
</g>















</svg>
