<?xml version="1.0" encoding="iso-8859-1"?>
<!-- Generator: Adobe Illustrator 19.0.0, SVG Export Plug-In . SVG Version: 6.00 Build 0)  -->
<svg version="1.1" id="Capa_1" xmlns="http://www.w3.org/2000/svg" xmlns:xlink="http://www.w3.org/1999/xlink" x="0px" y="0px"
	 viewBox="0 0 512 512" style="enable-background:new 0 0 512 512;" xml:space="preserve">
<g>
	<g>
		<path d="M416,295.445h-62v-41.857l69.071-69.072c2.859-2.86,3.715-7.162,2.168-10.898c-1.548-3.737-5.194-6.173-9.239-6.173h-62
			v-41.857l69.071-69.071c2.859-2.86,3.715-7.162,2.168-10.898c-1.548-3.737-5.194-6.173-9.239-6.173h-62V33.5
			C354,15.028,338.972,0,320.5,0H300c-5.522,0-10,4.477-10,10s4.478,10,10,10h20.5c7.444,0,13.5,6.056,13.5,13.5v380
			c0,7.444-6.056,13.5-13.5,13.5h-129c-7.444,0-13.5-6.056-13.5-13.5v-380c0-7.444,6.056-13.5,13.5-13.5h26.833
			c5.522,0,10-4.477,10-10s-4.478-10-10-10H191.5C173.028,0,158,15.028,158,33.5v5.945H96c-4.045,0-7.691,2.437-9.239,6.173
			c-1.547,3.736-0.691,8.038,2.168,10.898L158,125.587v41.857H96c-4.045,0-7.691,2.437-9.239,6.173
			c-1.547,3.736-0.691,8.038,2.168,10.898L158,253.587v41.857H96c-4.045,0-7.691,2.437-9.239,6.173
			c-1.547,3.736-0.691,8.038,2.168,10.898L158,381.587V413.5c0,18.472,15.028,33.5,33.5,33.5H218v55c0,5.523,4.478,10,10,10h56
			c5.522,0,10-4.477,10-10v-55h26.5c18.472,0,33.5-15.028,33.5-33.5v-31.913l69.071-69.071c2.859-2.86,3.715-7.162,2.168-10.898
			C423.691,297.881,420.045,295.445,416,295.445z M354,59.445h37.857L354,97.302V59.445z M354,187.445h37.857L354,225.302V187.445z
			 M158,353.302l-37.857-37.857H158V353.302z M158,225.302l-37.857-37.857H158V225.302z M158,97.302l-37.857-37.857H158V97.302z
			 M274,492h-36v-45h36V492z M354,353.302v-37.857h37.857L354,353.302z"/>
	</g>
</g>
<g>
	<g>
		<path d="M256,295.445c-29.775,0-54,24.224-54,54s24.225,54,54,54c29.775,0,54-24.224,54-54S285.775,295.445,256,295.445z
			 M256,383.445c-18.748,0-34-15.252-34-34s15.252-34,34-34s34,15.252,34,34S274.748,383.445,256,383.445z"/>
	</g>
</g>
<g>
	<g>
		<path d="M263.069,2.93C261.21,1.07,258.63,0,256,0c-2.63,0-5.21,1.07-7.07,2.93C247.069,4.79,246,7.37,246,10
			s1.069,5.21,2.93,7.07c1.861,1.86,4.44,2.93,7.07,2.93c2.63,0,5.21-1.07,7.069-2.93C264.93,15.21,266,12.63,266,10
			S264.93,4.79,263.069,2.93z"/>
	</g>
</g>
<g>
	<g>
		<path d="M256,167.445c-29.775,0-54,24.224-54,54s24.225,54,54,54c29.775,0,54-24.224,54-54S285.775,167.445,256,167.445z
			 M256,255.445c-18.748,0-34-15.252-34-34s15.252-34,34-34s34,15.252,34,34S274.748,255.445,256,255.445z"/>
	</g>
</g>
<g>
	<g>
		<path d="M256,39.445c-29.775,0-54,24.224-54,54s24.225,54,54,54c29.775,0,54-24.224,54-54S285.775,39.445,256,39.445z
			 M256,127.445c-18.748,0-34-15.252-34-34s15.252-34,34-34s34,15.252,34,34S274.748,127.445,256,127.445z"/>
	</g>
</g>
<g>
</g>
<g>
</g>
<g>
</g>
<g>
</g>
<g>
</g>
<g>
</g>
<g>
</g>
<g>
</g>
<g>
</g>
<g>
</g>
<g>
</g>
<g>
</g>
<g>
</g>
<g>
</g>
<g>
</g>
</svg>
