<svg height="512pt" viewBox="0 -21 512 512" width="512pt" xmlns="http://www.w3.org/2000/svg"><path d="m448 0h-384c-35.285156 0-64 28.714844-64 64v341.332031c0 35.285157 28.714844 64 64 64h384c35.285156 0 64-28.714843 64-64v-341.332031c0-35.285156-28.714844-64-64-64zm0 0" fill="#607d8b"/><path d="m448 426.667969h-384c-11.753906 0-21.332031-9.578125-21.332031-21.335938v-298.664062h426.664062v298.664062c0 11.757813-9.578125 21.335938-21.332031 21.335938zm0 0" fill="#fafafa"/><g fill="#42a5f5"><path d="m173.460938 232c-4.414063-7.660156-14.207032-10.28125-21.84375-5.84375l-12.949219 7.464844v-14.953125c0-8.832031-7.167969-16-16-16s-16 7.167969-16 16v14.953125l-12.949219-7.464844c-7.640625-4.4375-17.429688-1.816406-21.847656 5.84375-4.414063 7.660156-1.792969 17.429688 5.847656 21.84375l12.949219 7.488281-12.949219 7.488281c-7.660156 4.417969-10.261719 14.210938-5.847656 21.847657 2.945312 5.140625 8.34375 8 13.867187 8 2.710938 0 5.460938-.683594 8-2.15625l12.929688-7.464844v14.953125c0 8.832031 7.167969 16 16 16s16-7.167969 16-16v-14.953125l12.949219 7.464844c2.515624 1.472656 5.269531 2.15625 7.976562 2.15625 5.527344 0 10.902344-2.859375 13.867188-8 4.417968-7.660157 1.792968-17.429688-5.84375-21.847657l-12.949219-7.488281 12.949219-7.488281c7.65625-4.414062 10.261718-14.183594 5.84375-21.84375zm0 0"/><path d="m306.792969 232c-4.4375-7.660156-14.226563-10.28125-21.84375-5.84375l-12.949219 7.464844v-14.953125c0-8.832031-7.167969-16-16-16s-16 7.167969-16 16v14.953125l-12.949219-7.464844c-7.636719-4.4375-17.429687-1.816406-21.84375 5.84375-4.417969 7.660156-1.792969 17.429688 5.84375 21.84375l12.949219 7.488281-12.949219 7.488281c-7.660156 4.417969-10.261719 14.210938-5.84375 21.847657 2.941407 5.140625 8.339844 8 13.863281 8 2.710938 0 5.464844-.683594 8-2.15625l12.949219-7.464844v14.953125c0 8.832031 7.167969 16 16 16s16-7.167969 16-16v-14.953125l12.949219 7.464844c2.496094 1.472656 5.25 2.15625 7.960938 2.15625 5.523437 0 10.898437-2.859375 13.863281-8 4.417969-7.660157 1.792969-17.429688-5.84375-21.847657l-12.949219-7.488281 12.949219-7.488281c7.660156-4.414062 10.261719-14.183594 5.84375-21.84375zm0 0"/><path d="m450.792969 232c-4.414063-7.660156-14.207031-10.28125-21.84375-5.84375l-12.949219 7.464844v-14.953125c0-8.832031-7.167969-16-16-16s-16 7.167969-16 16v14.953125l-12.949219-7.464844c-7.617187-4.4375-17.449219-1.816406-21.84375 5.84375-4.417969 7.660156-1.792969 17.429688 5.84375 21.84375l12.949219 7.488281-12.949219 7.488281c-7.660156 4.417969-10.261719 14.210938-5.84375 21.847657 2.941407 5.140625 8.339844 8 13.863281 8 2.710938 0 5.464844-.683594 8-2.15625l12.929688-7.464844v14.953125c0 8.832031 7.167969 16 16 16s16-7.167969 16-16v-14.953125l12.949219 7.464844c2.515625 1.472656 5.269531 2.15625 7.980469 2.15625 5.523437 0 10.898437-2.859375 13.863281-8 4.417969-7.660157 1.792969-17.429688-5.84375-21.847657l-12.949219-7.488281 12.949219-7.488281c7.660156-4.414062 10.261719-14.183594 5.84375-21.84375zm0 0"/></g></svg>