<svg height="512pt" viewBox="-32 0 512 512" width="512pt" xmlns="http://www.w3.org/2000/svg"><path d="m410.667969 362.667969h-117.335938c-20.585937 0-37.332031 16.746093-37.332031 37.332031v74.667969c0 20.585937 16.746094 37.332031 37.332031 37.332031h117.335938c20.585937 0 37.332031-16.746094 37.332031-37.332031v-74.667969c0-20.585938-16.746094-37.332031-37.332031-37.332031zm0 0" fill="#ffc107"/><path d="m352 277.332031c-29.417969 0-53.332031 23.9375-53.332031 53.335938v32h32v-32c0-11.757813 9.554687-21.335938 21.332031-21.335938s21.332031 9.578125 21.332031 21.335938v32h32v-32c0-29.398438-23.914062-53.335938-53.332031-53.335938zm0 0" fill="#607d8b"/><path d="m224 400c0-28.800781 17.621094-53.523438 42.667969-64v-5.332031c0-43.394531 32.679687-78.933594 74.664062-84.246094v-187.753906c0-32.363281-26.300781-58.667969-58.664062-58.667969h-224c-32.363281 0-58.667969 26.304688-58.667969 58.667969v352c0 32.363281 26.304688 58.664062 58.667969 58.664062h165.332031zm0 0" fill="#607d8b"/><path d="m80 277.332031c-8.832031 0-16-7.167969-16-16v-53.332031c0-8.832031 7.167969-16 16-16s16 7.167969 16 16v53.332031c0 8.832031-7.167969 16-16 16zm0 0" fill="#fff"/></svg>