<svg height="512pt" viewBox="0 -128 512.00089 512" width="512pt" xmlns="http://www.w3.org/2000/svg"><g fill="#42a5f5"><path d="m256 170.667969c-11.796875 0-21.332031-9.558594-21.332031-21.335938v-128c0-11.773437 9.535156-21.332031 21.332031-21.332031s21.332031 9.558594 21.332031 21.332031v128c0 11.777344-9.535156 21.335938-21.332031 21.335938zm0 0"/><path d="m200.597656 138.667969c-7.382812 0-14.550781-3.820313-18.496094-10.667969-5.886718-10.195312-2.390624-23.253906 7.808594-29.140625l110.828125-64c10.152344-5.910156 23.25-2.410156 29.160157 7.808594 5.890624 10.195312 2.390624 23.253906-7.808594 29.140625l-110.824219 64c-3.371094 1.941406-7.042969 2.859375-10.667969 2.859375zm0 0"/><path d="m311.402344 138.667969c-3.625 0-7.296875-.917969-10.644532-2.859375l-110.828124-64c-10.21875-5.886719-13.714844-18.945313-7.828126-29.140625 5.886719-10.21875 18.964844-13.71875 29.140626-7.808594l110.828124 64c10.21875 5.886719 13.71875 18.945313 7.808594 29.140625-3.949218 6.847656-11.117187 10.667969-18.476562 10.667969zm0 0"/><path d="m142.847656 98.859375-23.421875-13.527344 23.421875-13.523437c10.199219-5.886719 13.695313-18.945313 7.808594-29.140625-5.910156-10.21875-18.988281-13.71875-29.140625-7.808594l-23.425781 13.523437v-27.050781c0-11.773437-9.535156-21.332031-21.332032-21.332031-11.796874 0-21.332031 9.558594-21.332031 21.332031v27.050781l-23.425781-13.523437c-10.195312-5.910156-23.230469-2.410156-29.140625 7.808594-5.886719 10.195312-2.390625 23.253906 7.808594 29.140625l23.421875 13.523437-23.421875 13.527344c-10.199219 5.886719-13.695313 18.945313-7.808594 29.140625 3.96875 6.847656 11.113281 10.667969 18.496094 10.667969 3.625 0 7.296875-.917969 10.644531-2.859375l23.425781-13.527344v27.050781c0 11.777344 9.535157 21.335938 21.332031 21.335938 11.796876 0 21.332032-9.558594 21.332032-21.335938v-27.050781l23.425781 13.527344c3.347656 1.941406 7.019531 2.859375 10.644531 2.859375 7.382813 0 14.550782-3.820313 18.496094-10.667969 5.886719-10.195312 2.390625-23.253906-7.808594-29.140625zm0 0"/><path d="m501.332031 98.859375-23.421875-13.527344 23.421875-13.523437c10.199219-5.886719 13.699219-18.945313 7.808594-29.140625-5.90625-10.21875-18.984375-13.71875-29.140625-7.808594l-23.421875 13.523437v-27.050781c0-11.773437-9.539063-21.332031-21.335937-21.332031-11.796876 0-21.332032 9.558594-21.332032 21.332031v27.050781l-23.425781-13.523437c-10.175781-5.910156-23.25-2.410156-29.140625 7.808594-5.886719 10.195312-2.386719 23.253906 7.808594 29.140625l23.425781 13.523437-23.425781 13.527344c-10.21875 5.886719-13.71875 18.945313-7.808594 29.140625 3.96875 6.847656 11.117188 10.667969 18.496094 10.667969 3.628906 0 7.296875-.917969 10.644531-2.859375l23.425781-13.527344v27.050781c0 11.777344 9.535156 21.335938 21.332032 21.335938 11.796874 0 21.335937-9.558594 21.335937-21.335938v-27.050781l23.421875 13.527344c3.351562 1.941406 7.019531 2.859375 10.644531 2.859375 7.382813 0 14.550781-3.820313 18.496094-10.667969 5.890625-10.195312 2.390625-23.253906-7.808594-29.140625zm0 0"/></g><path d="m128 256h-106.667969c-11.796875 0-21.332031-9.558594-21.332031-21.332031 0-11.777344 9.535156-21.335938 21.332031-21.335938h106.667969c11.796875 0 21.332031 9.558594 21.332031 21.335938 0 11.773437-9.535156 21.332031-21.332031 21.332031zm0 0" fill="#607d8b"/><path d="m309.332031 256h-106.664062c-11.796875 0-21.335938-9.558594-21.335938-21.332031 0-11.777344 9.539063-21.335938 21.335938-21.335938h106.664062c11.800781 0 21.335938 9.558594 21.335938 21.335938 0 11.773437-9.535157 21.332031-21.335938 21.332031zm0 0" fill="#607d8b"/><path d="m490.667969 256h-106.667969c-11.796875 0-21.332031-9.558594-21.332031-21.332031 0-11.777344 9.535156-21.335938 21.332031-21.335938h106.667969c11.796875 0 21.332031 9.558594 21.332031 21.335938 0 11.773437-9.535156 21.332031-21.332031 21.332031zm0 0" fill="#607d8b"/></svg>