<svg height="512pt" viewBox="0 0 512 512" width="512pt" xmlns="http://www.w3.org/2000/svg" xmlns:xlink="http://www.w3.org/1999/xlink"><linearGradient id="a" gradientUnits="userSpaceOnUse" x1="0" x2="512" y1="256" y2="256"><stop offset="0" stop-color="#00f1ff"/><stop offset=".231" stop-color="#00d8ff"/><stop offset=".5138" stop-color="#00c0ff"/><stop offset=".7773" stop-color="#00b2ff"/><stop offset="1" stop-color="#00adff"/></linearGradient><path d="m512 256c0 141.386719-114.613281 256-256 256s-256-114.613281-256-256 114.613281-256 256-256 256 114.613281 256 256zm0 0" fill="url(#a)"/><g fill="#fff"><path d="m395.246094 198.941406v-7.078125c0-25.265625-9.953125-49.015625-28.023438-66.875-17.507812-17.300781-40.441406-26.785156-64.691406-26.785156-.367188 0-.734375 0-1.101562.003906-22.03125.261719-43.296876 8.390625-59.878907 22.886719-10.484375 9.167969-18.707031 20.519531-24.144531 33.121094-8.101562-3.851563-17.039062-5.914063-26.203125-5.914063-.035156 0-.074219 0-.113281 0-33.621094.0625-60.976563 27.75-60.976563 61.714844v10.226563c-26.820312 6.621093-46.757812 30.691406-46.757812 59.289062 0 16.3125 6.179687 31.613281 17.394531 43.082031 11.359375 11.613281 26.640625 18.011719 43.027344 18.011719h28.058594c8.28125 0 15-6.71875 15-15 0-8.285156-6.71875-15-15-15h-28.058594c-17.058594 0-30.421875-13.65625-30.421875-31.09375 0-17.140625 14.203125-31.089844 31.65625-31.089844h.101562c8.285157 0 15-6.714844 15-15v-23.421875c0-17.457031 13.921875-31.683593 31.03125-31.714843h.058594c8.90625 0 17.402344 3.835937 23.316406 10.535156 3.847657 4.359375 9.875 6.101562 15.457031 4.46875 5.585938-1.632813 9.71875-6.347656 10.609376-12.097656 4.703124-30.347657 30.441406-52.636719 61.195312-53 16.613281-.183594 32.328125 6.238281 44.355469 18.117187 12.324219 12.183594 19.109375 28.351563 19.109375 45.535156v15.476563c0 5.546875 3.066406 10.644531 7.96875 13.246094 15.6875 8.328124 25.433594 24.515624 25.433594 42.25 0 22.449218-15.257813 41.609374-37.089844 46.589843l-.140625.03125c-3.394531.777344-6.875 1.167969-10.339844 1.167969h-10.242187c-8.285157 0-15 6.714844-15 15s6.714843 15 15 15h10.242187c5.707031 0 11.433594-.644531 17-1.914062l.140625-.035157c16.90625-3.855469 32.246094-13.445312 43.191406-27.003906 11.113282-13.769531 17.238282-31.113281 17.238282-48.835937-.003907-25.730469-12.59375-49.453126-33.402344-63.894532zm0 0"/><path d="m255.332031 387.078125c-7.378906 0-13.359375 5.980469-13.359375 13.359375s5.980469 13.359375 13.359375 13.359375c7.378907 0 13.359375-5.980469 13.359375-13.359375s-5.980468-13.359375-13.359375-13.359375zm0 0"/><path d="m255.996094 249.167969c-28.527344 0-51.734375 23.207031-51.734375 51.734375 0 8.285156 6.714843 15 15 15 8.285156 0 15-6.714844 15-15 0-11.984375 9.75-21.734375 21.734375-21.734375s21.734375 9.75 21.734375 21.734375c0 .132812.003906.269531.003906.402344-.148437 8.570312-5.304687 16.242187-13.214844 19.621093-14.289062 6.101563-23.523437 20.191407-23.523437 35.902344v.859375c0 8.285156 6.714844 15 15 15s15-6.714844 15-15v-.859375c0-3.675781 2.082031-6.9375 5.304687-8.3125 19.101563-8.15625 31.441407-26.84375 31.4375-47.613281 0-.207032-.003906-.410156-.011719-.613282-.332031-28.242187-23.410156-51.121093-51.730468-51.121093zm0 0"/></g></svg>