<svg height="512pt" viewBox="-43 0 512 512" width="512pt" xmlns="http://www.w3.org/2000/svg"><path d="m170.667969 64c0 35.347656-28.65625 64-64 64-35.347657 0-64-28.652344-64-64s28.652343-64 64-64c35.34375 0 64 28.652344 64 64zm0 0" fill="#607d8b"/><path d="m144 149.332031h-74.667969c-38.226562 0-69.332031 31.105469-69.332031 69.335938v85.332031c0 26.773438 18.113281 49.152344 42.667969 56.171875v119.828125c0 17.664062 14.335937 32 32 32 17.664062 0 32-14.335938 32-32 0 17.664062 14.335937 32 32 32 17.664062 0 32-14.335938 32-32v-119.828125c24.554687-7.019531 42.664062-29.398437 42.664062-56.171875v-85.332031c0-38.230469-31.101562-69.335938-69.332031-69.335938zm0 0" fill="#607d8b"/><g fill="#4caf50"><path d="m373.332031 149.332031h-138.664062c-11.796875 0-21.335938-9.554687-21.335938-21.332031s9.539063-21.332031 21.335938-21.332031h138.664062c11.796875 0 21.335938 9.554687 21.335938 21.332031s-9.539063 21.332031-21.335938 21.332031zm0 0"/><path d="m421.566406 116.265625-74.664062-69.332031c-3.007813-2.796875-6.933594-4.246094-10.882813-4.246094-10.578125 0-16.019531 9.003906-16.019531 15.980469v138.664062c0 8.875 7.210938 16 16 16 3.96875 0 7.871094-1.46875 10.902344-4.265625l74.664062-69.332031c3.246094-3.03125 5.101563-7.296875 5.101563-11.734375s-1.855469-8.703125-5.101563-11.734375zm0 0"/></g></svg>