<svg height="512pt" viewBox="0 0 512 512" width="512pt" xmlns="http://www.w3.org/2000/svg" xmlns:xlink="http://www.w3.org/1999/xlink"><linearGradient id="a" gradientUnits="userSpaceOnUse" x1="0" x2="512" y1="256" y2="256"><stop offset="0" stop-color="#00f1ff"/><stop offset=".231" stop-color="#00d8ff"/><stop offset=".5138" stop-color="#00c0ff"/><stop offset=".7773" stop-color="#00b2ff"/><stop offset="1" stop-color="#00adff"/></linearGradient><path d="m512 256c0 141.386719-114.613281 256-256 256s-256-114.613281-256-256 114.613281-256 256-256 256 114.613281 256 256zm0 0" fill="url(#a)"/><g fill="#fff"><path d="m427.640625 123.628906c-.34375-32.695312-25.105469-54.609375-61.832031-54.609375-36.832032 0-62.632813 22.410157-63.015625 54.585938-.003907.117187-.003907.238281-.003907.359375v.359375c0 .136719.003907.269531.007813.40625.242187 17.351562 8.773437 31.332031 16.316406 43.691406 6.292969 10.316406 11.730469 19.226563 11.730469 28.125v16.519531c0 13.355469 9.5 24.519532 22.058594 27.035156 1.40625 5.875 6.675781 10.25 12.984375 10.25 6.3125 0 11.589843-4.386718 12.984375-10.273437 12.570312-2.566406 22.054687-13.703125 22.054687-27.007813v-16.523437c0-8.398437 4.90625-16.625 10.585938-26.152344 7.472656-12.527343 15.929687-26.703125 16.128906-45.734375.003906-.113281.003906-.222656.003906-.335937v-.359375c0-.113282 0-.226563-.003906-.335938zm-56.714844 76.925782v10.078124h-10.078125v-10.078124zm14.824219-45.527344c-2.898438 4.859375-5.949219 9.992187-8.53125 15.527344h-22.609375c-2.929687-6.347657-6.503906-12.222657-9.886719-17.765626-6.363281-10.425781-11.867187-19.441406-11.929687-28.660156.136719-23.296875 25.292969-25.109375 33.015625-25.109375 9.546875 0 31.722656 2.449219 31.839844 25.121094-.0625 11.035156-5.550782 20.238281-11.898438 30.886719zm0 0"/><path d="m388.988281 354.644531c-8.109375 1.695313-13.308593 9.640625-11.613281 17.75.886719 4.25-.941406 7.300781-2.113281 8.742188-1.164063 1.433593-3.769531 3.84375-8.109375 3.84375h-244.34375c-4.339844 0-6.945313-2.410157-8.109375-3.84375-1.171875-1.441407-3-4.492188-2.113281-8.742188 12.964843-62.023437 68.644531-107.042969 132.394531-107.042969 45.195312 0 87.226562 22.347657 112.425781 59.78125 4.625 6.871094 13.945312 8.691407 20.820312 4.066407 6.871094-4.628907 8.691407-13.949219 4.066407-20.820313-20.183594-29.980468-49.199219-52.039062-82.34375-63.675781 1.371093-1.136719 2.726562-2.304687 4.039062-3.53125 6.050781-5.65625 6.367188-15.148437.710938-21.199219-5.660157-6.050781-15.152344-6.371094-21.203125-.710937-10.632813 9.945312-24.476563 15.421875-38.988282 15.421875-31.617187 0-57.339843-25.9375-57.339843-57.8125 0-31.878906 25.722656-57.8125 57.339843-57.8125 7.042969 0 13.914063 1.269531 20.421876 3.769531 7.730468 2.972656 16.410156-.886719 19.382812-8.617187 2.972656-7.734376-.886719-16.414063-8.621094-19.386719-9.953125-3.824219-20.445312-5.765625-31.183594-5.765625-48.160156 0-87.339843 39.394531-87.339843 87.8125 0 27.4375 12.582031 51.96875 32.246093 68.082031-17.820312 6.339844-34.546874 15.707031-49.3125 27.804687-29.050781 23.804688-49.253906 57.007813-56.882812 93.5-2.503906 11.984376.484375 24.304688 8.195312 33.796876 7.707032 9.484374 19.152344 14.925781 31.394532 14.925781h244.34375c12.242187 0 23.683594-5.441407 31.394531-14.925781 7.710937-9.492188 10.699219-21.8125 8.191406-33.796876-1.691406-8.109374-9.644531-13.304687-17.75-11.613281zm0 0"/></g></svg>