<svg height="512pt" viewBox="0 0 512 512" width="512pt" xmlns="http://www.w3.org/2000/svg" xmlns:xlink="http://www.w3.org/1999/xlink"><linearGradient id="a" gradientUnits="userSpaceOnUse" x1="0" x2="512" y1="256" y2="256"><stop offset="0" stop-color="#00f1ff"/><stop offset=".231" stop-color="#00d8ff"/><stop offset=".5138" stop-color="#00c0ff"/><stop offset=".7773" stop-color="#00b2ff"/><stop offset="1" stop-color="#00adff"/></linearGradient><path d="m512 256c0 141.386719-114.613281 256-256 256s-256-114.613281-256-256 114.613281-256 256-256 256 114.613281 256 256zm0 0" fill="url(#a)"/><g fill="#fff"><path d="m353.53125 69.355469c-41.421875 0-75.117188 31.410156-75.117188 70.023437 0 12.671875 3.734376 25.148438 10.648438 35.953125l-9.554688 23.636719c-2.289062 5.660156-.917968 12.144531 3.464844 16.394531 2.855469 2.769531 6.621094 4.230469 10.441406 4.230469 2.042969 0 4.105469-.417969 6.050782-1.277344l29.246094-12.890625c7.429687 2.289063 15.613281 3.410157 24.816406 3.410157 19.800781 0 38.460937-7.019532 52.546875-19.761719 14.527343-13.140625 22.542969-30.808594 22.570312-49.792969-.054687-38.558594-33.75-69.925781-75.113281-69.925781zm0 109.480469c-7.816406 0-14.1875-1.097657-19.480469-3.359376-1.882812-.800781-3.886719-1.203124-5.890625-1.203124-2.058594 0-4.121094.425781-6.050781 1.277343l-1.292969.566407c.886719-4.445313-.285156-9.121094-3.296875-12.652344-5.957031-6.992188-9.105469-15.320313-9.105469-24.085938 0-22.070312 20.238282-40.023437 45.117188-40.023437 24.84375 0 45.082031 17.929687 45.113281 39.929687-.03125 21.804688-20.269531 39.550782-45.113281 39.550782zm0 0"/><path d="m389.988281 354.308594c-8.109375 1.695312-13.308593 9.644531-11.613281 17.753906.886719 4.25-.941406 7.300781-2.113281 8.738281-1.164063 1.4375-3.769531 3.84375-8.109375 3.84375h-244.34375c-4.339844 0-6.945313-2.40625-8.113282-3.84375-1.167968-1.441406-3-4.488281-2.109374-8.738281 12.964843-62.027344 68.644531-107.046875 132.394531-107.046875 45.199219 0 87.226562 22.347656 112.425781 59.78125 4.625 6.875 13.949219 8.691406 20.820312 4.066406 6.871094-4.625 8.691407-13.949219 4.066407-20.820312-30.011719-44.578125-79.554688-71.632813-133.164063-72.964844-1.457031-.46875-3.007812-.730469-4.617187-.730469-31.621094 0-57.34375-25.933594-57.34375-57.8125 0-31.875 25.722656-57.808594 57.34375-57.808594.902343 0 1.503906.019532 2.4375.0625 8.289062.402344 15.296875-6.003906 15.6875-14.277343.386719-8.277344-6.007813-15.300781-14.28125-15.6875-1.285157-.0625-2.375-.097657-3.847657-.097657-48.160156 0-87.339843 39.390626-87.339843 87.808594 0 27.4375 12.582031 51.972656 32.246093 68.085938-17.820312 6.339844-34.546874 15.707031-49.3125 27.804687-29.050781 23.800781-49.253906 57.007813-56.882812 93.496094-2.503906 11.984375.480469 24.304687 8.195312 33.796875 7.707032 9.484375 19.148438 14.925781 31.394532 14.925781h244.34375c12.242187 0 23.683594-5.4375 31.390625-14.921875 7.714843-9.492187 10.699219-21.8125 8.195312-33.796875-1.691406-8.109375-9.636719-13.3125-17.75-11.617187zm0 0"/></g></svg>