<svg viewBox="0 0 512 512" xmlns="http://www.w3.org/2000/svg" xmlns:xlink="http://www.w3.org/1999/xlink"><linearGradient id="a" gradientTransform="matrix(1 0 0 -1 0 -17294)" gradientUnits="userSpaceOnUse" x1="0" x2="512" y1="-17550" y2="-17550"><stop offset="0" stop-color="#00f1ff"/><stop offset=".231" stop-color="#00d8ff"/><stop offset=".5138" stop-color="#00c0ff"/><stop offset=".7773" stop-color="#00b2ff"/><stop offset="1" stop-color="#00adff"/></linearGradient><path d="m512 256c0 141.386719-114.613281 256-256 256s-256-114.613281-256-256 114.613281-256 256-256 256 114.613281 256 256zm0 0" fill="url(#a)"/><path d="m404.40625 130.039062c-11.652344-5.101562-28.570312-10.984374-47.796875-12.964843-5.433594-26.269531-28.75-46.074219-56.601563-46.074219-.074218 0-.140624.007812-.210937.011719-.074219-.003907-.140625-.011719-.210937-.011719-25.585938 0-47.328126 16.714844-54.914063 39.792969-1.199219-.488281-2.390625-.984375-3.609375-1.449219-16.976562-6.488281-36.265625-2.398438-49.140625 10.417969l-40.722656 40.527343c-13.421875 13.359376-17.289063 33.921876-9.621094 51.160157 1.125 2.53125 2.304687 5.042969 3.53125 7.515625l-78.71875 78.746094c-2.8125 2.8125-4.390625 6.628906-4.390625 10.605468v52.132813c0 8.28125 6.714844 15 15 15h51.796875c8.285156 0 15-6.71875 15-15v-18.855469h18.203125c8.285156 0 15-6.714844 15-15v-31.695312c0-8.285157-6.714844-15-15-15s-15 6.714843-15 15v16.695312h-18.203125c-8.28125 0-15 6.714844-15 15v18.855469h-21.796875v-30.921875l81.898438-81.925782c1.789062-1.789062 3.09375-4 3.796874-6.425781l.148438-.511719c1.132812-3.898437.636719-8.089843-1.378906-11.617187-2.695313-4.722656-5.210938-9.695313-7.472656-14.785156-2.648438-5.949219-1.292969-13.066407 3.371093-17.710938l40.71875-40.527343c4.523438-4.5 11.304688-5.9375 17.269531-3.65625 10.800782 4.128906 20.597657 9.308593 29.183594 15.433593-2.878906 6.0625-4.46875 12.777344-4.484375 19.730469v5.476562l-11.851562-11.851562c-5.859375-5.859375-15.355469-5.859375-21.210938 0-5.859375 5.855469-5.859375 15.355469 0 21.210938l25.933594 25.933593c2.035156 2.039063 4.515625 3.351563 7.128906 3.96875v12.960938c-.019531 9.355469 2.839844 18.308593 7.847657 25.796875l-8.386719 8.347656c-4.671875 4.648438-11.648438 6.003906-17.777344 3.453125-3.664063-1.519531-10.957031-4.78125-18.625-9.484375-7.058594-4.332031-16.296875-2.125-20.628906 4.9375s-2.125 16.296875 4.9375 20.628906c6.972656 4.28125 15.070312 8.40625 22.796875 11.621094 5.796875 2.410156 11.867187 3.582031 17.878906 3.582031 11.984375 0 23.726562-4.664062 32.582031-13.472656l11.371094-11.320313c2.292969.847657 4.597656 1.667969 6.90625 2.425782v113.289062c0 3.984375 1.582031 7.804688 4.402344 10.617188l36.015625 35.957031c2.816406 2.808594 6.625 4.386719 10.601562 4.386719h.074219c4-.023438 7.828125-1.640625 10.628906-4.492188l35.292969-35.960937c5.714844-5.820313 5.726562-15.144531.03125-20.984375l-11.925781-12.21875 12.539062-12.40625c2.855469-2.824219 4.457031-6.671875 4.453125-10.6875-.007812-4.015625-1.625-7.859375-4.488281-10.675782l-23.132813-22.722656c-5.910156-5.808594-15.40625-5.71875-21.210937.1875-5.804687 5.910156-5.722656 15.410156.1875 21.214844l12.277344 12.058594-12.3125 12.179687c-5.863281 5.800781-5.945313 15.242188-.1875 21.144531l12.078125 12.375-14.414063 14.683594-20.90625-20.875v-117.730468c0-3.9375-1.546875-7.714844-4.304687-10.519532l-.726563-.738281c-1.878906-1.914063-4.242187-3.285156-6.835937-3.976563-5.609375-1.492187-11.28125-3.339843-16.855469-5.492187-6.105469-2.355469-10.195313-8.40625-10.179687-15.09375v-57.699219c.015624-6.417968 3.863281-12.285156 9.800781-14.949218 8.257812-3.707032 19.824219-7.921876 32.953125-9.976563v21.324219h-2.289063c-8.28125 0-15 6.71875-15 15 0 8.285156 6.71875 15 15 15h36.019531c8.28125 0 15-6.714844 15-15 0-8.28125-6.71875-15-15-15h-3.730468v-21.53125c13.703125 1.953125 25.890625 6.289062 34.574218 10.085937 5.859376 2.566407 9.636719 8.386719 9.621094 14.867188v58.398437c-.015625 6.523438-4.15625 12.617188-10.304687 15.160156-6.277344 2.601563-12.757813 4.710938-19.257813 6.273438-8.054687 1.933594-13.015625 10.035156-11.082031 18.089844 1.933594 8.054687 10.035156 13.019531 18.089844 11.078125 8.019531-1.925781 16.003906-4.523438 23.726562-7.722657 17.46875-7.234374 28.785157-24.035156 28.828125-42.847656v-58.394531c.039063-18.390625-10.792968-35.027344-27.597656-42.382813zm-121.835938.207032c-.636718.285156-1.261718.589844-1.882812.902344-2.78125-2.125-5.660156-4.167969-8.640625-6.117188 1.84375-13.550781 13.488281-24.03125 27.539063-24.03125.070312 0 .136718-.011719.210937-.011719.070313 0 .136719.011719.210937.011719 11.367188 0 21.15625 6.859375 25.460938 16.660156-17.308594 2.414063-32.335938 7.847656-42.898438 12.585938zm0 0" fill="#fff"/></svg>