<svg height="512pt" viewBox="0 0 512 512" width="512pt" xmlns="http://www.w3.org/2000/svg" xmlns:xlink="http://www.w3.org/1999/xlink"><linearGradient id="a" gradientUnits="userSpaceOnUse" x1="0" x2="512" y1="256" y2="256"><stop offset="0" stop-color="#00f1ff"/><stop offset=".231" stop-color="#00d8ff"/><stop offset=".5138" stop-color="#00c0ff"/><stop offset=".7773" stop-color="#00b2ff"/><stop offset="1" stop-color="#00adff"/></linearGradient><path d="m512 256c0 141.386719-114.613281 256-256 256s-256-114.613281-256-256 114.613281-256 256-256 256 114.613281 256 256zm0 0" fill="url(#a)"/><g fill="#fff"><path d="m408.378906 360.597656c13.289063-18.402344 20.265625-39.714844 20.265625-62.164062 0-36.160156-18.613281-69.738282-50.046875-90.84375-6.820312-69.554688-70.28125-124.238282-147.3125-124.238282-81.570312 0-147.929687 61.308594-147.929687 136.667969 0 27.96875 8.914062 54.5 25.875 77.265625l-24.78125 61.308594c-2.289063 5.660156-.917969 12.140625 3.464843 16.390625 2.855469 2.769531 6.621094 4.230469 10.441407 4.230469 2.042969 0 4.105469-.417969 6.050781-1.273438l71.058594-31.328125c8.664062 3.273438 17.578125 5.746094 26.683594 7.425781 9.835937 15.9375 23.75 29.433594 40.613281 39.292969 19.054687 11.140625 41.054687 17.089844 63.675781 17.261719.332031.023438.660156.050781 1 .050781 15.410156 0 30.347656-2.625 44.5-7.808593l55.660156 24.535156c1.945313.855468 4.003906 1.273437 6.046875 1.273437 3.820313 0 7.585938-1.460937 10.441407-4.230469 4.386718-4.25 5.753906-10.730468 3.46875-16.390624zm-31.0625 3.199219 8.578125 21.222656-27.589843-12.164062c-3.796876-1.671875-8.121094-1.699219-11.9375-.070313-12.058594 5.144532-24.972657 7.78125-38.386719 7.851563-.183594-.003907-.363281-.027344-.546875-.027344-24.542969 0-47.792969-9.085937-64.691406-24.351563 20.9375-1.503906 41.390624-7.089843 59.738281-16.40625 7.386719-3.753906 10.332031-12.78125 6.582031-20.167968-3.75-7.386719-12.78125-10.335938-20.164062-6.582032-17.5 8.886719-37.421876 13.582032-57.613282 13.582032-17.546875 0-34.441406-3.410156-50.207031-10.136719-3.816406-1.628906-8.136719-1.605469-11.9375.070313l-43.035156 18.972656 14.21875-35.179688c2.097656-5.179687 1.136719-11.097656-2.488281-15.351562-16.015626-18.789063-24.480469-41.28125-24.480469-65.039063 0-58.816406 52.902343-106.667969 117.929687-106.667969s117.929688 47.851563 117.929688 106.667969c0 18.96875-5.578125 37.597657-16.136719 53.867188-4.507813 6.949219-2.527344 16.238281 4.421875 20.746093 6.945312 4.507813 16.238281 2.53125 20.746094-4.417968 9.058594-13.960938 15.277344-29.292969 18.46875-45.230469 13.992187 14.726563 21.933594 33.597656 21.933594 53.449219 0 18.257812-6.515626 35.550781-18.839844 50.011718-3.628906 4.253907-4.585938 10.171876-2.492188 15.351563zm0 0"/><path d="m230.617188 275.371094c-7.378907 0-13.359376 5.980468-13.359376 13.359375 0 7.378906 5.980469 13.359375 13.359376 13.359375 7.375 0 13.359374-5.980469 13.359374-13.359375 0-7.378907-5.980468-13.359375-13.359374-13.359375zm0 0"/><path d="m231.28125 137.460938c-28.527344 0-51.734375 23.207031-51.734375 51.734374 0 8.285157 6.714844 15 15 15 8.28125 0 15-6.714843 15-15 0-11.984374 9.75-21.734374 21.734375-21.734374s21.734375 9.75 21.734375 21.734374c0 .132813 0 .269532.003906.402344-.152343 8.570313-5.304687 16.242188-13.214843 19.621094-14.292969 6.101562-23.523438 20.191406-23.523438 35.898438v.859374c0 8.285157 6.714844 15 15 15 8.28125 0 15-6.714843 15-15v-.859374c0-3.671876 2.082031-6.933594 5.304688-8.308594 19.101562-8.15625 31.441406-26.847656 31.4375-47.617188 0-.207031-.003907-.410156-.011719-.613281-.332031-28.242187-23.410157-51.117187-51.730469-51.117187zm0 0"/></g></svg>