<svg id="Layer_1" height="512" viewBox="0 0 128 128" width="512" xmlns="http://www.w3.org/2000/svg" data-name="Layer 1"><path d="m105.459 75.444a11.749 11.749 0 0 1 -4.267 14.462c-7.979 5.307-20.675 13.523-32.811 20.415a59.223 59.223 0 0 1 -35.513 7.343l36.487-29.556z" fill="#5a5a5a"/><path d="m69.355 88.108-5.355 4.338v20.119q2.229-1.029 4.381-2.244c12.137-6.892 24.832-15.108 32.811-20.415a11.749 11.749 0 0 0 4.267-14.462z" fill="#444"/><path d="m111.41 70.78s-34.99 29.03-78.54 46.88l-3.86-3.68-1.38-1.31a6.749 6.749 0 0 1 -1.54-.81c-2.69-1.77-8.09-7.06-9.29-21.39 0 0 52.23 1.13 77.07-32.96a9.695 9.695 0 0 0 -7.9-15.29 9.9 9.9 0 0 0 -1.94.2 278.93 278.93 0 0 1 -65.92 5.03s7.38-62.59 85.92-25.94a11.51 11.51 0 0 1 1.42 5.32 17.063 17.063 0 0 1 .01 1.9 12.389 12.389 0 0 1 1.18 1.29c3.18 3.84 11.17 16.5 4.77 40.76z" fill="#e43c53"/><path d="m105.459 28.727c.238-4.685-1.428-7.216-1.428-7.216-16.18-7.551-29.331-10.882-40.031-11.424v35.547c8.609-1.044 15.487-2.281 20.033-3.211a9.684 9.684 0 0 1 9.836 15.087c-8 10.98-18.845 18.3-29.869 23.19v21.834a346.8 346.8 0 0 0 47.409-31.756c7.854-29.751-5.95-42.051-5.95-42.051z" fill="#ca3046"/><path d="m93.869 57.51a9.684 9.684 0 0 0 -9.835-15.087 278.917 278.917 0 0 1 -65.921 5.03s-9.75 23.619 1.43 42.987c11.024-.318 52.871-3.491 74.326-32.93z" fill="#5a5a5a"/><path d="m19.737 40.492h19.022v-10.532h-14.391a51 51 0 0 0 -4.631 10.532z" fill="#deecf1"/><path d="m54.306 84.4c14.1-4.6 29.208-12.682 39.562-26.888a9.684 9.684 0 0 0 -9.835-15.087c-5.512 1.127-14.447 2.707-25.747 3.845s20.743 17.263-3.98 38.13z" fill="#444"/><circle cx="84.447" cy="53.004" fill="#fd9e27" r="3.689"/><path d="m61.7 95.79a216.952 216.952 0 0 1 -32.69 18.19l-1.38-1.31a6.749 6.749 0 0 1 -1.54-.81 1.681 1.681 0 0 1 .87-.81 209.258 209.258 0 0 0 32.77-18.16 1.753 1.753 0 0 1 1.97 2.9z" fill="#ca3046"/><path d="m106.64 30.02a1.767 1.767 0 0 1 -1.87.31c-34.34-14.73-53 3.02-53.18 3.2a1.775 1.775 0 0 1 -1.23.5 1.745 1.745 0 0 1 -1.22-3c.81-.79 20.28-19.32 56.31-4.2a17.063 17.063 0 0 1 .01 1.9 12.389 12.389 0 0 1 1.18 1.29z" fill="#e43c53"/><path d="m16.439 83.512c6.771-3.212 14.109-13.926 14.461-22.671s-12.788-13.388-12.788-13.388-7.592 18.416-1.673 36.059z" fill="#deecf1"/></svg>