<svg id="Layer_1" height="512" viewBox="0 0 128 128" width="512" xmlns="http://www.w3.org/2000/svg" data-name="Layer 1"><path d="m26.417 15.5a5.917 5.917 0 0 1 5.917 5.917v91.083a0 0 0 0 1 0 0h-11.834a0 0 0 0 1 0 0v-91.083a5.917 5.917 0 0 1 5.917-5.917z" fill="#fcca03"/><path d="m32.333 112.5v-91.083a5.917 5.917 0 0 0 -5.916-5.917v97z" fill="#fcad02"/><path d="m90.667 66.732h-75.167v-41.333h75.167l21.833 20.667z" fill="#af5819"/><path d="m15.5 60.482h71.667l20.282-19.198-16.782-15.885h-75.167z" fill="#cb6f2c"/><path d="m63.844 33.704-11.669 6.173v18.55h7.679v-8.286h7.979v8.286h7.679v-18.493z" fill="#e0eff4"/><circle cx="26.417" cy="34.685" fill="#292929" r="2.708"/><circle cx="26.417" cy="57.469" fill="#292929" r="2.708"/><path d="m70.125 37.923h5.387v20.504h-5.387z" fill="#c2dbe5"/><path d="m54.458 50.141h5.387v8.287h-5.387z" fill="#c2dbe5"/><path d="m78.756 43.4a1.742 1.742 0 0 1 -.817-.2l-14.182-7.513-13.985 7.5a1.75 1.75 0 1 1 -1.654-3.084l14.808-7.946a1.752 1.752 0 0 1 1.646 0l15.006 7.951a1.75 1.75 0 0 1 -.821 3.3z" fill="#292929"/></svg>