<svg id="Layer_1" height="512" viewBox="0 0 128 128" width="512" xmlns="http://www.w3.org/2000/svg" data-name="Layer 1"><path d="m113.7 44.794-21.83-20.666a1.751 1.751 0 0 0 -1.2-.479h-56.587v-2.232a7.667 7.667 0 1 0 -15.333 0v2.232h-3.25a1.75 1.75 0 0 0 -1.75 1.75v41.333a1.75 1.75 0 0 0 1.75 1.75h3.25v44.018a1.75 1.75 0 0 0 1.75 1.75h11.833a1.75 1.75 0 0 0 1.75-1.75v-44.018h56.584a1.751 1.751 0 0 0 1.203-.482l21.83-20.664a1.75 1.75 0 0 0 0-2.542zm-91.45-23.377a4.167 4.167 0 1 1 8.333 0v2.232h-8.333zm8.333 89.333h-8.333v-42.268h8.333zm59.387-45.768h-72.72v-37.833h72.72l19.984 18.917z"/><path d="m79.577 40.108-15.006-7.951a1.752 1.752 0 0 0 -1.646 0l-14.808 7.951a1.75 1.75 0 1 0 1.654 3.084l.653-.351v15.586a1.75 1.75 0 0 0 1.75 1.75h7.68a1.75 1.75 0 0 0 1.75-1.75v-6.536h4.479v6.537a1.75 1.75 0 0 0 1.75 1.75h7.679a1.75 1.75 0 0 0 1.75-1.75v-15.586l.677.359a1.75 1.75 0 0 0 1.639-3.093zm-5.815 16.569h-4.179v-6.536a1.75 1.75 0 0 0 -1.75-1.75h-7.979a1.75 1.75 0 0 0 -1.75 1.75v6.537h-4.18v-15.715l9.832-5.276 10 5.3z"/><path d="m26.417 31.977a2.708 2.708 0 1 0 2.708 2.708 2.711 2.711 0 0 0 -2.708-2.708z"/><path d="m26.417 54.761a2.708 2.708 0 1 0 2.708 2.708 2.711 2.711 0 0 0 -2.708-2.708z"/></svg>