<svg id="Layer_1" enable-background="new 0 0 504.018 504.018" height="512" viewBox="0 0 504.018 504.018" width="512" xmlns="http://www.w3.org/2000/svg"><path d="m502.496 395.397c-.054-4.173-1.734-8.16-4.686-11.11l-178.339-178.34c28.804-103.241-48.449-205.947-156.576-205.947-89.857.123-162.223 72.796-162.105 162.45.141 107.981 103.348 184.787 206.037 156.143l37.29 37.29c3.81 3.811 9.277 5.444 14.559 4.354l27.781-5.754-6.182 26.948c-1.232 5.37.386 10.995 4.281 14.891l25.363 25.362c3.694 3.695 8.957 5.355 14.106 4.44l29.528-5.234-5.235 29.528c-.913 5.146.745 10.411 4.44 14.106l34.807 34.807c2.958 2.959 7.07 4.743 11.537 4.685l54.903-.768c27.488-.384 49.567-23.061 49.218-50.549zm-355.649-247.678c-13.454 13.45-35.339 13.45-48.793 0-13.452-13.452-13.452-35.341 0-48.793 13.454-13.45 35.338-13.45 48.793 0 13.453 13.452 13.453 35.341 0 48.793z" fill="#a8a8a8"/><path d="m502.496 395.397c-.054-4.173-1.734-8.16-4.686-11.11l-178.339-178.34c28.804-103.241-48.449-205.947-156.576-205.947-55.206.076-104.1 27.356-133.793 70.582 23.153-12.174 48.936-18.511 75.545-18.511 108.267 0 184.995 103.255 156.345 205.947l178.339 178.34c2.951 2.95 4.632 6.938 4.686 11.11l.711 55.911 9.28-.13c27.488-.384 49.567-23.061 49.218-50.549z" fill="#afafaf"/></svg>