<svg height="512pt" viewBox="-72 0 512 512.00029" width="512pt" xmlns="http://www.w3.org/2000/svg"><path d="m12.742188 512c0-94.675781 76.75-171.425781 171.425781-171.425781s171.425781 76.75 171.425781 171.425781zm0 0" fill="#edebed"/><path d="m209.921875 342.5c-8.402344-1.265625-17-1.925781-25.753906-1.925781-94.675781 0-171.425781 76.75-171.425781 171.425781h51.507812c0-85.921875 63.214844-157.074219 145.671875-169.5zm0 0" fill="#dbd9dc"/><path d="m309.195312 433.464844c-17.273437 0-31.28125 14.007812-31.28125 31.285156v47.25h70.851563c0-28.4375-7.214844-55.191406-19.910156-78.535156zm0 0" fill="#64505a"/><path d="m59.140625 433.464844c17.277344 0 31.28125 14.007812 31.28125 31.285156v47.25h-70.851563c0-28.4375 7.214844-55.191406 19.910157-78.535156zm0 0" fill="#64505a"/><path d="m59.140625 433.464844h-19.660156c-12.695313 23.34375-19.910157 50.097656-19.910157 78.535156h51.511719c0-23.246094 4.828125-45.359375 13.519531-65.410156-5.671874-7.941406-14.960937-13.125-25.460937-13.125zm0 0" fill="#5a4650"/><path d="m153.261719 298.601562h61.8125v213.398438h-61.8125zm0 0" fill="#e6646e"/><path d="m153.261719 298.601562h30.90625v213.398438h-30.90625zm0 0" fill="#dc4655"/><path d="m184.167969 326.871094h-74.867188v56.238281c0 9.824219 6.386719 18.515625 15.773438 21.402344 12.601562 3.871093 32.546875 8.160156 59.09375 8.160156 26.550781 0 46.496093-4.289063 59.09375-8.160156 9.386719-2.886719 15.773437-11.578125 15.773437-21.402344v-56.238281zm0 0" fill="#64505a"/><path d="m184.167969 412.671875c-26.550781 0-46.492188-4.289063-59.09375-8.160156-9.386719-2.886719-15.773438-11.578125-15.773438-21.402344v-56.238281h74.867188zm0 0" fill="#5a4650"/><path d="m184.503906 0c-101.480468-.179688-184.503906 84.265625-184.503906 185.746094v57.515625c0 69.078125 55.996094 125.074219 125.070312 125.074219h118.191407c69.078125 0 125.074219-55.996094 125.074219-125.074219v-59.09375c0-101.601563-82.273438-183.984375-183.832032-184.167969zm0 0" fill="#edebed"/><path d="m51.507812 243.261719v-57.515625c0-92.691406 69.273438-171.160156 158.601563-183.917969-8.367187-1.179687-16.914063-1.8125-25.605469-1.828125-101.480468-.179688-184.503906 84.265625-184.503906 185.746094v57.515625c0 69.078125 55.996094 125.074219 125.070312 125.074219h51.511719c-69.074219 0-125.074219-55.996094-125.074219-125.074219zm0 0" fill="#dbd9dc"/><path d="m37.472656 162.132812v75.796876c0 40.707031 33 73.707031 73.703125 73.707031 12.929688 0 25.589844-3.714844 36.46875-10.699219 22.21875-14.261719 50.71875-14.261719 72.9375 0 10.878907 6.984375 23.539063 10.699219 36.46875 10.699219 40.707031 0 73.703125-33 73.703125-73.707031v-75.796876zm0 0" fill="#64505a"/><path d="m88.980469 237.929688v-75.796876h-51.507813v75.796876c0 40.707031 32.996094 73.707031 73.703125 73.707031 8.660157 0 17.195313-1.671875 25.15625-4.871094-27.6875-10.605469-47.351562-37.417969-47.351562-68.835937zm0 0" fill="#5a4650"/><path d="m257.050781 291.035156c-9 0-17.761719-2.570312-25.335937-7.433594-14.230469-9.136718-30.691406-13.964843-47.601563-13.964843-16.910156 0-33.367187 4.828125-47.597656 13.964843-7.574219 4.859376-16.335937 7.433594-25.339844 7.433594-29.28125 0-53.101562-23.824218-53.101562-53.105468v-75.800782h252.078125v75.800782c0 29.28125-23.820313 53.105468-53.101563 53.105468zm0 0" fill="#a5cdff"/><path d="m109.582031 237.929688v-75.796876h-51.507812v75.796876c0 29.28125 23.820312 53.105468 53.101562 53.105468 8.835938 0 17.4375-2.484375 24.914063-7.171875-15.832032-9.203125-26.507813-26.339843-26.507813-45.933593zm0 0" fill="#8cb4eb"/><path d="m262.066406 74.71875c0-11.742188 9.519532-21.261719 21.261719-21.261719h30.566406c-33.210937-32.964843-78.917969-53.3671872-129.390625-53.457031-50.082031-.0898438-95.664062 20.445312-128.996094 53.457031h29.5c11.742188 0 21.261719 9.519531 21.261719 21.261719s9.519531 21.261719 21.261719 21.261719h113.273438c11.742187 0 21.261718-9.519531 21.261718-21.261719zm0 0" fill="#64505a"/><path d="m184.167969 120.140625c-64.132813 0-155.382813 24.722656-155.382813 42.75v20.210937c0 4.90625 4.679688 8.445313 9.40625 7.125 19.054688-5.332031 67.226563-16.082031 145.976563-16.082031s126.921875 10.75 145.976562 16.082031c4.726563 1.320313 9.40625-2.21875 9.40625-7.125v-20.210937c0-18.027344-91.25-42.75-155.382812-42.75zm0 0" fill="#ff8087"/><path d="m80.296875 142.289062c0-2.726562 2.097656-5.605468 5.859375-8.53125-32.695312 8.578126-57.371094 19.761719-57.371094 29.132813v20.210937c0 4.90625 4.679688 8.445313 9.40625 7.125 8.371094-2.34375 22.367188-5.730468 42.105469-8.792968zm0 0" fill="#e6646e"/><path d="m100.523438 60.214844c28.21875-30.867188 66.574218-52.242188 109.585937-58.386719-8.367187-1.179687-16.914063-1.8125-25.605469-1.828125-50.082031-.0898438-95.664062 20.445312-128.996094 53.457031h29.5c6.128907 0 11.636719 2.609375 15.515626 6.757813zm0 0" fill="#5a4650"/></svg>