<svg height="511pt" viewBox="-69 0 511 511.997" width="511pt" xmlns="http://www.w3.org/2000/svg"><path d="m373.042969 243.636719v-57.363281c0-49.695313-19.335938-96.433594-54.445313-131.601563-.191406-.195313-.390625-.382813-.585937-.574219-.007813-.007812-.015625-.015625-.023438-.023437-35.039062-34.785157-81.476562-53.9843752-130.875-54.074219h-.332031c-49.503906 0-96.246094 19.703125-131.613281 55.476562-35.253907 35.664063-54.667969 82.660157-54.667969 132.328126v55.832031c0 55.078125 34.726562 102.191406 83.429688 120.617187-.234376.167969-.457032.347656-.6875.519532-.792969.589843-1.578126 1.195312-2.363282 1.796874-.8125.625-1.628906 1.25-2.433594 1.890626-.464843.367187-.917968.75-1.375 1.125-6.625 5.382812-12.824218 11.230468-18.5625 17.496093-.109374.117188-.21875.234375-.328124.355469-1.097657 1.203125-2.175782 2.425781-3.238282 3.660156-.175781.203125-.347656.40625-.523437.609375-1.007813 1.183594-2.003907 2.378907-2.980469 3.589844-.230469.28125-.453125.566406-.683594.851563-.917968 1.15625-1.832031 2.320312-2.722656 3.5-.292969.386718-.578125.78125-.871094 1.171874-.816406 1.101563-1.632812 2.203126-2.425781 3.324219-.4375.613281-.851563 1.238281-1.277344 1.859375-.636719.925782-1.285156 1.84375-1.90625 2.785156-1.054687 1.601563-2.085937 3.21875-3.089843 4.855469-.15625.253907-.304688.515625-.460938.773438-.753906 1.242187-1.503906 2.484375-2.226562 3.746093-.121094.214844-.234376.433594-.355469.648438-.222657.398438-.441407.800781-.664063 1.199219-.75 1.351562-1.492187 2.710937-2.203125 4.078125-.089843.171875-.183593.339844-.273437.507812-.136719.246094-.265625.496094-.371094.753906-.039062.074219-.070312.144532-.109375.214844-.636719 1.253906-1.265625 2.515625-1.875 3.785156-.117187.246094-.246094.480469-.363281.726563-.054688.117187-.097656.242187-.148438.363281-10.84375 23.046875-16.546875 48.378906-16.546875 74.054688 0 4.144531 3.359375 7.5 7.5 7.5h332.808594c4.144531 0 7.5-3.355469 7.5-7.5 0-27.589844-6.585937-54.808594-19.066406-79.195313-.109375-.261719-.238281-.507812-.378907-.75-1.023437-1.972656-2.070312-3.933593-3.167968-5.867187-12.117188-21.320313-28.734375-39.917969-48.472656-54.425782 48.71875-18.414062 83.457031-65.535156 83.457031-120.621093zm-128.90625 128.90625c2.621093 0 5.222656-.085938 7.808593-.242188v7.085938c0 6.296875-4.023437 11.761719-10.015624 13.605469-10.113282 3.105468-26.25 6.742187-47.65625 7.453124v-27.898437h49.863281zm-178.730469 48.226562h-13.695312c11.636718-18.761719 27.054687-34.910156 45.386718-47.457031.3125-.214844.621094-.421875.933594-.632812 1.136719-.765626 2.285156-1.515626 3.441406-2.253907.367188-.234375.734375-.464843 1.105469-.699219 1.332031.285157 2.671875.554688 4.019531.796876v8.863281c0 12.925781 8.28125 24.152343 20.609375 27.941406 5.667969 1.742187 13.082031 3.636719 22.066407 5.171875v84.5h-46v-38.367188c0-20.878906-16.988282-37.863281-37.867188-37.863281zm98.867188-6.269531c4.699218.457031 9.707031.785156 15 .949219v81.550781h-15zm15-14.054688c-21.410157-.710937-37.546876-4.347656-47.660157-7.457031-5.992187-1.839843-10.015625-7.304687-10.015625-13.601562v-7.085938c2.582032.152344 5.1875.242188 7.808594.242188h49.867188zm-136.753907 37.089844c.222657-.324218.425781-.664062.597657-1.027344.117187-.25.246093-.492187.367187-.738281h21.921875c12.605469 0 22.867188 10.257813 22.867188 22.863281v38.367188h-60.234376c.964844-20.960938 5.96875-41.074219 14.480469-59.464844zm242.753907 59.464844v-38.367188c0-12.605468 10.257812-22.863281 22.863281-22.863281h22.03125c9.035156 18.875 14.335937 39.617188 15.332031 61.230469zm36.6875-76.230469h-13.824219c-20.878907 0-37.863281 16.984375-37.863281 37.863281v38.367188h-46v-27.707031c0-4.144531-3.359376-7.5-7.5-7.5-4.144532 0-7.5 3.355469-7.5 7.5v27.707031h-15v-81.550781c5.289062-.164063 10.300781-.492188 15-.949219v26.792969c0 4.140625 3.355468 7.5 7.5 7.5 4.140624 0 7.5-3.359375 7.5-7.5v-28.792969c8.984374-1.535156 16.394531-3.429688 22.0625-5.171875 12.328124-3.789063 20.609374-15.015625 20.609374-27.941406v-8.863281c1.351563-.242188 2.695313-.515626 4.03125-.796876 21.121094 13.21875 38.390626 30.734376 50.984376 51.042969zm-77.824219-63.226562h-114.730469c-62.808594 0-113.90625-51.097657-113.90625-113.90625v-55.832031c0-47.03125 18.726562-89.726563 49.042969-120.914063h25.972656c7.246094 0 13.140625 5.894531 13.140625 13.140625 0 15.515625 12.625 28.140625 28.140625 28.140625h40.976563c4.140624 0 7.5-3.359375 7.5-7.5 0-4.144531-3.359376-7.5-7.5-7.5h-40.980469c-7.242188 0-13.136719-5.894531-13.136719-13.140625 0-15.515625-12.625-28.140625-28.140625-28.140625h-9.402344c29.128907-23.097656 65.832031-36.890625 105.667969-36.890625h.304688c39.875.070312 76.605468 13.863281 105.71875 36.890625h-9.777344c-15.515625 0-28.140625 12.625-28.140625 28.140625 0 7.246094-5.894531 13.140625-13.140625 13.140625h-40.972656c-4.144532 0-7.5 3.355469-7.5 7.5 0 4.140625 3.355468 7.5 7.5 7.5h40.976562c15.515625 0 28.136719-12.625 28.136719-28.140625 0-7.246094 5.894531-13.140625 13.140625-13.140625h26.390625c30.070312 30.882813 48.628906 73.019531 48.628906 119.382813v57.363281c-.003906 62.808593-51.101563 113.90625-113.910156 113.90625zm0 0"/><path d="m326.183594 145.0625c-9.527344-4.835938-22.898438-9.675781-38.671875-13.992188-33.078125-9.046874-70.738281-14.453124-100.738281-14.453124-30.003907 0-67.664063 5.40625-100.742188 14.453124-15.773438 4.316407-29.144531 9.15625-38.671875 13.992188-8.121094 4.125-18.917969 10.742188-18.917969 20.554688v19.621093c0 5.859375 3.457032 10.917969 8.429688 13.269531v39.953126c0 43.585937 35.460937 79.046874 79.046875 79.046874 14.015625 0 27.65625-4.003906 39.453125-11.574218 19.042968-12.222656 43.652344-12.222656 62.695312 0 11.792969 7.570312 25.4375 11.574218 39.449219 11.574218 43.589844 0 79.050781-35.460937 79.050781-79.046874v-39.898438c1.507813-.699219 2.910156-1.644531 4.136719-2.84375 2.835937-2.777344 4.398437-6.5 4.398437-10.480469v-19.617187c0-9.816406-10.796874-16.433594-18.917968-20.558594zm-282.742188 20.945312c1.4375-2.691406 13.171875-11.757812 50.332032-21.476562 30.902343-8.085938 65.667968-12.910156 93-12.910156 27.328124 0 62.09375 4.824218 93 12.910156 37.15625 9.71875 48.890624 18.785156 50.328124 21.476562v18.8125c-21.382812-5.945312-68.136718-15.777343-143.328124-15.777343-75.273438 0-122.042969 9.851562-143.332032 15.789062zm28.429688 27.671876c24.285156-4.640626 62.585937-9.636719 114.898437-9.636719 52.238281 0 90.503907 4.984375 114.796875 9.617187v44.800782c0 24.285156-19.761718 44.046874-44.050781 44.046874-7.296875 0-14.398437-2.085937-20.542969-6.027343-15.019531-9.644531-32.398437-14.742188-50.253906-14.742188s-35.234375 5.097657-50.257812 14.742188c-6.140626 3.941406-13.246094 6.027343-20.542969 6.027343-24.289063 0-44.046875-19.761718-44.046875-44.046874zm185.648437 108.828124c-11.136719 0-21.976562-3.179687-31.347656-9.195312-23.96875-15.386719-54.9375-15.386719-78.90625 0-9.371094 6.015625-20.210937 9.195312-31.347656 9.195312-35.316407 0-64.046875-28.730468-64.046875-64.046874v-40.363282c1.523437-.390625 3.179687-.800781 5-1.230468v41.59375c0 32.558593 26.488281 59.046874 59.046875 59.046874 10.179687 0 20.085937-2.90625 28.648437-8.402343 12.601563-8.089844 27.175782-12.367188 42.152344-12.367188s29.550781 4.277344 42.152344 12.367188c8.566406 5.496093 18.472656 8.402343 28.648437 8.402343 32.558594 0 59.046875-26.488281 59.046875-59.046874v-41.621094c1.820313.429687 3.476563.84375 5 1.230468v40.390626c0 35.3125-28.730468 64.046874-64.046875 64.046874zm0 0"/></svg>