<?xml version="1.0"?>
<svg xmlns="http://www.w3.org/2000/svg" id="Layer_1" data-name="Layer 1" viewBox="0 0 128 128" width="512" height="512"><title>MOTORCYCLIST</title><path d="M89.405,73H87.139a35.225,35.225,0,1,0-46.278,0H38.595a27.187,27.187,0,0,0-15.382,4.75,1.735,1.735,0,0,0-.3.216A27.326,27.326,0,0,0,11.25,100.345V115a1.75,1.75,0,0,0,3.5,0v-4h8a1.75,1.75,0,0,0,1.75-1.75v-6.667a1.75,1.75,0,0,0-1.75-1.75h-8v-.488a23.864,23.864,0,0,1,.4-4.339,10.477,10.477,0,0,0,11.692-16.4A23.689,23.689,0,0,1,38.595,76.5h6.777A19.394,19.394,0,0,0,62.25,89.9V115a1.75,1.75,0,0,0,3.5,0V89.9A19.373,19.373,0,0,0,82.627,76.5h6.778a23.885,23.885,0,0,1,22.724,16.623,9.8,9.8,0,0,0,1.121,19.015V115a1.75,1.75,0,0,0,3.5,0V100.345A27.375,27.375,0,0,0,89.405,73ZM21,104.333V107.5H14.75v-3.167Zm4.619-18.205a7,7,0,0,1-7,7,6.93,6.93,0,0,1-2.578-.513,23.932,23.932,0,0,1,7.872-11.038A6.94,6.94,0,0,1,25.619,86.128ZM74.6,76.372a64.886,64.886,0,0,0-3.061-10.162c9.764-1.272,15.988-5.2,18.579-11.749a7.909,7.909,0,0,0,1.043.077,8.005,8.005,0,0,0,3.743-.928A31.84,31.84,0,0,1,74.6,76.372ZM36.909,51.031c-.024,0-.048.007-.072.007a4.562,4.562,0,0,1,0-9.124c.039,0,.078.01.117.011a20.641,20.641,0,0,0-.462,4.55A24.375,24.375,0,0,0,36.909,51.031Zm3.083-4.556c0-3.6.784-6.119,2.4-7.707,3.076-3.024,9.449-2.919,16.831-2.8,3.1.051,6.459.051,9.557,0,7.382-.121,13.755-.229,16.831,2.8,1.614,1.588,2.4,4.108,2.4,7.707,0,9.757-5.914,15.118-18.033,16.392a9.593,9.593,0,0,0-1.811-2.462,6.311,6.311,0,0,0-8.328,0,9.592,9.592,0,0,0-1.81,2.46C45.908,61.592,39.992,56.231,39.992,46.475ZM78.145,32.612c-2.868-.244-6.049-.2-9.424-.141-3.061.051-6.381.051-9.441,0-3.376-.056-6.557-.1-9.424.14V29.5H78.145Zm12.9,9.313c.039,0,.078-.011.117-.011a4.562,4.562,0,0,1,0,9.124c-.024,0-.048-.006-.073-.007a24.364,24.364,0,0,0,.417-4.556A20.641,20.641,0,0,0,91.046,41.924ZM60.554,65.555c.022-.042.041-.085.061-.129a8.358,8.358,0,0,1,1.534-2.394,2.807,2.807,0,0,1,3.7,0c1.574,1.386,4.16,8.379,5.384,14.325a31.494,31.494,0,0,1-14.472,0A57.211,57.211,0,0,1,60.554,65.555ZM64,14.75A31.773,31.773,0,0,1,94.906,39.341a7.925,7.925,0,0,0-5.136-.8,10.033,10.033,0,0,0-1.706-2.268,12.626,12.626,0,0,0-6.419-3.159V27.749A1.75,1.75,0,0,0,79.895,26H48.105a1.75,1.75,0,0,0-1.75,1.75v5.364a12.629,12.629,0,0,0-6.419,3.16A10.033,10.033,0,0,0,38.23,38.54a7.925,7.925,0,0,0-5.136.8A31.773,31.773,0,0,1,64,14.75ZM33.094,53.609a8.005,8.005,0,0,0,3.743.928,7.893,7.893,0,0,0,1.044-.078c2.591,6.546,8.81,10.482,18.576,11.753A64.892,64.892,0,0,0,53.4,76.372,31.84,31.84,0,0,1,33.094,53.609ZM64,86.48a16.109,16.109,0,0,1-13.719-7.562,35.216,35.216,0,0,0,27.439,0A16.094,16.094,0,0,1,64,86.48Zm44.687,16.01a6.349,6.349,0,0,1,4.255-5.953,23.9,23.9,0,0,1,.308,3.808v8.206A6.32,6.32,0,0,1,108.687,102.49Z"/><path d="M95.167,98.25a1.75,1.75,0,0,0-1.75,1.75v15a1.75,1.75,0,0,0,3.5,0V100A1.75,1.75,0,0,0,95.167,98.25Z"/><path d="M32.833,98.25a1.75,1.75,0,0,0-1.75,1.75v15a1.75,1.75,0,0,0,3.5,0V100A1.75,1.75,0,0,0,32.833,98.25Z"/><path d="M54.246,98.25H39.371a1.75,1.75,0,0,0-1.75,1.75v14.875a1.75,1.75,0,0,0,1.75,1.75H54.246a1.75,1.75,0,0,0,1.75-1.75V100A1.75,1.75,0,0,0,54.246,98.25Zm-4.225,3.5-3.213,3.213L43.6,101.75Zm-8.9,11.375v-8.9l4.45,4.45a1.749,1.749,0,0,0,2.475,0l4.45-4.45v8.9Z"/><path d="M88.629,98.25H73.754A1.75,1.75,0,0,0,72,100v14.875a1.75,1.75,0,0,0,1.75,1.75H88.629a1.75,1.75,0,0,0,1.75-1.75V100A1.75,1.75,0,0,0,88.629,98.25Zm-4.225,3.5-3.213,3.213-3.213-3.213Zm-8.9,11.375v-8.9l4.45,4.45a1.749,1.749,0,0,0,2.475,0l4.45-4.45v8.9Z"/></svg>
