<svg id="Layer_1" height="512" viewBox="0 0 128 128" width="512" xmlns="http://www.w3.org/2000/svg" data-name="Layer 1"><path d="m115 100.34v14.66h-102v-14.66a25.594 25.594 0 0 1 25.59-25.59h50.82a25.594 25.594 0 0 1 25.59 25.59z" fill="#fc445e"/><path d="m81.3 74.75h-34.6a17.847 17.847 0 0 0 34.609 0z" fill="#fec379"/><circle cx="64" cy="46.475" fill="#fbb74d" r="33.475"/><path d="m96.92 100v15h-3.5v-15a1.75 1.75 0 0 1 3.5 0z" fill="#cd0c52"/><path d="m34.58 100v15h-3.5v-15a1.75 1.75 0 0 1 3.5 0z" fill="#cd0c52"/><g fill="#ffffef"><path d="m13 102.583h9.75v6.667h-9.75z"/><path d="m18.622 94.875a8.742 8.742 0 0 0 5.436-15.592 25.628 25.628 0 0 0 -10.126 14.217 8.7 8.7 0 0 0 4.69 1.375z"/><path d="m114.313 94.463a8.06 8.06 0 0 0 .687 16.09v-10.208a25.645 25.645 0 0 0 -.687-5.882z"/></g><path d="m89.757 46.475c0 14.225-11.532 18.447-25.757 18.447s-25.757-4.222-25.757-18.447 11.532-12.203 25.757-12.203 25.757-2.022 25.757 12.203z" fill="#9df9fe"/><path d="m91.163 40.163a6.284 6.284 0 0 0 -2.342.454 16.11 16.11 0 0 1 .936 5.858 20.6 20.6 0 0 1 -.8 5.909 6.309 6.309 0 1 0 2.2-12.221z" fill="#fee671"/><path d="m36.837 40.163a6.284 6.284 0 0 1 2.342.454 16.11 16.11 0 0 0 -.936 5.858 20.6 20.6 0 0 0 .8 5.909 6.309 6.309 0 1 1 -2.2-12.221z" fill="#fee671"/><path d="m64 34.272c6 0 11.516-.355 15.894.3v-6.823h-31.788v6.819c4.378-.651 9.894-.296 15.894-.296z" fill="#1dafea"/><path d="m39.371 100h14.875v15h-14.875z" fill="#fff0c6"/><path d="m46.809 107.437-7.438-7.437h14.875z" fill="#ffffef"/><path d="m73.754 100h14.875v15h-14.875z" fill="#fff0c6"/><path d="m81.191 107.437-7.437-7.437h14.875z" fill="#ffffef"/><path d="m64 66.672c-18.253 0-27.508-6.795-27.508-20.2 0-4.586 1.127-7.923 3.444-10.2 4.122-4.055 11.175-3.937 19.343-3.8 3.061.051 6.381.051 9.441 0 8.164-.133 15.222-.252 19.343 3.8 2.317 2.279 3.444 5.616 3.444 10.2.001 13.405-9.254 20.2-27.507 20.2zm-8.921-30.748c-5.575 0-10.206.4-12.688 2.844-1.614 1.588-2.4 4.108-2.4 7.707 0 11.235 7.853 16.7 24.008 16.7s24.008-5.462 24.008-16.7c0-3.6-.784-6.119-2.4-7.707-3.076-3.025-9.451-2.917-16.831-2.8-3.1.051-6.459.051-9.557 0-1.419-.021-2.808-.044-4.14-.044z" fill="#1dafea"/><path d="m64 79.95a33.469 33.469 0 0 0 9.261-1.308c-1-5.927-3.946-14.894-6.253-16.924a4.566 4.566 0 0 0 -6.016 0c-2.306 2.03-5.255 11-6.253 16.924a33.469 33.469 0 0 0 9.261 1.308z" fill="#fee671"/></svg>