<svg id="Capa_1" enable-background="new 0 0 512 512" height="512" viewBox="0 0 512 512" width="512" xmlns="http://www.w3.org/2000/svg"><path d="m245 11c-96.042 0-179.162 55.272-219.326 135.735l-25.327 96.214c-.227 4.322-.347 8.673-.347 13.051l42.706 138.228c44.134 64.465 118.269 106.772 202.294 106.772 135.31 0 245-109.69 245-245s-109.69-245-245-245z" fill="#9f66d8"/><path d="m481.891 193.308c-129.586-23.541-151.79 103.811-212.104 82.898-63.43-21.993-68.433 39.88-155.516 8.817-43.417-15.487-78.814-12.804-103.404-6.223l31.833 115.406c44.131 64.477 118.267 106.794 202.3 106.794 135.31 0 245-109.69 245-245 0-21.671-2.827-42.68-8.109-62.692z" fill="#af7fdf"/><path d="m235.162 468.18c-1.876-27.435 39.487-42.929 37.992-70.387-.626-11.501-9.111-21.16-18.642-27.627s-20.437-10.721-29.868-17.332c-17.626-12.355-29.14-33.03-30.363-54.521-.221-3.884-.1-7.78.333-11.641-18.717 7.513-41.264 12.29-80.341-1.648-43.417-15.487-78.814-12.804-103.404-6.223l31.831 115.405c44.131 64.477 118.267 106.794 202.3 106.794 8.484 0 16.866-.432 25.128-1.274-16.624-4.201-33.817-14.739-34.966-31.546z" fill="#9f66d8"/><path d="m90.717 308.573c-6.187-3.815-8.11-11.923-4.294-18.111l21.522-34.902c3.814-6.186 11.923-8.111 18.111-4.295 6.187 3.815 8.11 11.923 4.294 18.111l-21.522 34.902c-3.82 6.199-11.935 8.104-18.111 4.295z" fill="#21212b"/><path d="m4.096 211.227c-1.914 10.361-3.183 20.948-3.749 31.723l51.07 21.559c11.376 4.802 24.186 1.466 31.878-7.441l-42.476-18.065c-14.433-6.138-27.002-15.725-36.723-27.776z" fill="#4b4a55"/><path d="m141.382 284.948.782.872c.598-.403 8.462-9.308 22.973-10.656l.623-.057 28.08-53.147c-.774-.577-5.396-2.32-9.086-8.673l-5.467-9.413c-5.783-.263-17.719-3.06-34.168.635l-32.125 7.216-.257.377c-6.679 9.818-5.562 23.166 2.655 31.738l11.597 12.097c5.265 5.494 2.392 14.764-5.276 16.145l1.103 5.672c7.313-.738 14.067 2.177 18.566 7.194z" fill="#363540"/><path d="m195.344 222.243c-.795-.37-1.557-.797-2.301-1.251l-29.228 55.319c1.118-.1 2.248-.159 3.392-.159 20.887 0 37.818 16.932 37.818 37.818 0 9.529-3.534 18.225-9.349 24.875h4.881c5.331 0 10.161-2.943 12.605-7.68l41.863-81.136z" fill="#4b4a55"/><path d="m174.722 198.313 9.033 15.553c2.422 4.17 6.064 7.496 10.435 9.532l60.132 27.997 19.825-38.424z" fill="#5f5e6a"/><path d="m147 299.574c0 9.601-6.419 18.24-15.61 21.009l-.935.282c.108.519.228 1.033.356 1.544l6.197 9.822c2.612 4.143 7.097 6.616 11.996 6.616h48.828c6.15-6.9 9.892-15.993 9.892-25.963 0-21.564-17.481-39.044-39.045-39.044-10.623 0-20.25 4.248-27.29 11.132 3.477 3.883 5.611 8.992 5.611 14.602z" fill="#eeefeb"/><path d="m165.03 274.014c-9.169.852-17.416 4.872-23.64 10.957 3.476 3.884 5.61 8.993 5.61 14.603 0 9.601-6.419 18.24-15.61 21.009l-.935.282c.108.519.228 1.033.356 1.544l6.197 9.822c2.612 4.143 7.097 6.616 11.996 6.616h46.672c-49.867-16.53-30.741-64.597-30.646-64.833z" fill="#d6d6d0"/><path d="m412.861 245.853c-54.753 0-99.139 44.386-99.139 99.139s44.386 99.139 99.139 99.139 99.139-44.386 99.139-99.139-44.386-99.139-99.139-99.139zm0 163.754c-35.686 0-64.615-28.929-64.615-64.615s28.929-64.615 64.615-64.615 64.615 28.929 64.615 64.615-28.929 64.615-64.615 64.615z" fill="#21212b"/><path d="m412.861 444.132c19.948 0 38.516-5.897 54.067-16.034-.032-.004-.062-.01-.094-.014-13.608-1.607-15.712-9.965-15.479-15.73.12-2.977-1.557-5.713-4.276-6.931-1.901-.852-3.201-2.003-4.074-3.278-9.001 4.757-19.254 7.463-30.143 7.463-35.686 0-64.615-28.929-64.615-64.615 0-24.838 14.022-46.39 34.574-57.205l-16.125-30.544c-31.498 16.606-52.974 49.667-52.974 87.749 0 54.753 44.386 99.139 99.139 99.139z"/><path d="m4.188 301.253c10.592 11.508 17.066 26.866 17.066 43.74 0 3.186-.24 6.315-.686 9.378 6.155 14.021 13.579 27.356 22.138 39.857 8.316-14.506 13.072-31.315 13.072-49.235 0-39.202-22.755-73.086-55.776-89.173 0 .06-.002.12-.002.18 0 15.462 1.448 30.585 4.188 45.253z"/><path d="m464.746 175.891-30.845-20.839c-11.214-7.576-24.406-11.692-37.939-11.836l-57.346-.612-1.082-.779-15.59 7.054 16.899 31.26c14.963-6.945 50.175-20.629 71.739-7.332 15.175 9.357 35.087 13.007 50.119 14.389 6.391.589 9.363-7.712 4.045-11.305z" fill="#6ad394"/><path d="m385.998 143.11-47.382-.506-1.082-.779-15.59 7.054 16.899 31.26c10.4-4.827 30.581-12.901 49.165-12.917-.002-.001-.004-.003-.006-.004-15.332-10.862-2.004-24.107-2.004-24.108z" fill="#59b37d"/><path d="m277.845 114.068-26.267 31.882 57.982 26.858z" fill="#4b4a55"/><path d="m412.861 418.27c-40.405 0-73.277-32.872-73.277-73.278 0-40.405 32.872-73.278 73.277-73.278s73.278 32.872 73.278 73.278-32.873 73.278-73.278 73.278zm0-128.418c-30.405 0-55.14 24.736-55.14 55.141s24.736 55.141 55.14 55.141c30.405 0 55.141-24.736 55.141-55.141s-24.737-55.141-55.141-55.141z" fill="#5f5e6a"/><path d="m450.145 408.041c-.74-1.119-1.781-2.042-3.067-2.618-8.087-3.622-5.315-12.65-4.949-13.732-8.489 5.34-18.521 8.442-29.268 8.442-30.405 0-55.14-24.736-55.14-55.141 0-21.164 11.992-39.571 29.532-48.811l-8.465-16.034c-23.287 12.286-39.204 36.735-39.204 64.844 0 40.406 32.872 73.278 73.277 73.278 13.608.001 26.353-3.74 37.284-10.228z" fill="#4b4a55"/><circle cx="412.861" cy="344.992" fill="#eeefeb" r="41.451"/><path d="m434.35 380.445c-8.49-1.906-10.128-7.097-10.105-10.883.013-2.196-1.012-4.258-2.833-5.485-3.236-2.18-1.685-6.384-1.685-6.384l-26.092-49.422c-13.209 6.93-22.225 20.769-22.225 36.72 0 22.892 18.558 41.451 41.451 41.451 7.867.001 15.223-2.191 21.489-5.997z" fill="#d6d6d0"/><circle cx="412.861" cy="344.992" fill="#c6c6c1" r="23.601"/><path d="m2.012 287.516c1.297 10.097 3.219 19.997 5.707 29.671l8.759 27.286c2.985 7.703 6.339 15.222 10.058 22.526 2.193-6.95 3.381-14.341 3.381-22.006 0-23.281-10.926-44.045-27.905-57.477z" fill="#5f5e6a"/><path d="m273.474 211.757-61.337 118.88c-2.246 4.352-6.682 7.055-11.579 7.055h-51.553c-4.5 0-8.619-2.271-11.019-6.077l-7.517-11.913c-1.74.419-3.546.664-5.414.664-4.784 0-9.227-1.454-12.914-3.944l-9.45 2.546 15.757 24.973c6.658 10.552 18.081 16.852 30.557 16.852h51.553c13.579 0 25.882-7.496 32.108-19.563l65.577-127.097z" fill="#363540"/><path d="m198.821 337.691h-49.816c-4.5 0-8.619-2.271-11.019-6.077l-7.517-11.913c-1.74.419-3.546.664-5.415.664-4.783 0-9.227-1.454-12.914-3.944l-9.45 2.546 15.757 24.973c6.658 10.552 18.081 16.852 30.558 16.852h51.553c1.536 0 3.052-.109 4.548-.296-16.689-7.565-6.285-22.805-6.285-22.805z" fill="#21212b"/><path d="m116.224 243.041c-7.891-8.232-8.947-20.861-2.533-30.29l-103.043-28.374c-2.879 9.433-5.208 19.105-6.942 28.983 9.614 11.596 21.911 20.825 35.958 26.798l76.142 32.382c5.211 2.216 11.249.028 13.83-5.012 2.097-4.095 1.368-9.068-1.815-12.389z" fill="#d6d6d0"/><path d="m113.691 212.752-103.043-28.375c-2.879 9.433-5.208 19.105-6.942 28.983 9.614 11.596 21.911 20.825 35.958 26.798l42.542 18.093c-7.706-33.323 27.444-29.361 27.444-29.361l.01-.014c-.586-5.532.718-11.254 4.031-16.124z" fill="#c6c6c1"/><path d="m322.621 149.841 15.995-7.237c5.174-2.341 7.226-8.617 4.435-13.563l-12.507-22.159c-1.715-3.038-4.932-4.916-8.421-4.916h-25.384z" fill="#4b4a55"/><path d="m400.16 351.859-134.848-249.441c-3.792-7.015-1.18-15.775 5.835-19.567 7.014-3.792 15.775-1.18 19.567 5.835l134.848 249.441c3.792 7.014 1.18 15.775-5.835 19.567-6.987 3.777-15.759 1.208-19.567-5.835z" fill="#eeefeb"/><path d="m342.767 215.888c5.693-3.078 12.392-2.416 17.32 1.12l-69.372-128.322c-3.792-7.016-12.553-9.627-19.567-5.835-7.015 3.792-9.628 12.553-5.835 19.567l68.891 127.435c.153-5.657 3.226-11.08 8.563-13.965z" fill="#d6d6d0"/><ellipse cx="267.264" cy="88.939" fill="#363540" rx="21.071" ry="21.071" transform="matrix(.707 -.707 .707 .707 15.391 215.034)"/><path d="m209.242 104.17c-1.779-7.048 2.492-14.203 9.541-15.982l39.758-10.035c7.046-1.779 14.203 2.491 15.982 9.54 1.779 7.048-2.492 14.203-9.541 15.982l-39.757 10.035c-7.06 1.783-14.208-2.505-15.983-9.54z" fill="#4b4a55"/><path d="m7.652 316.978c2.41 9.407 5.373 18.591 8.836 27.526l97.203-26.189c-6.332-3.854-10.583-10.801-10.583-18.74 0-3.137.673-6.116 1.864-8.817z" fill="#eeefeb"/><path d="m55.184 334.077 58.507-15.763c-6.332-3.854-10.583-10.801-10.583-18.74 0-3.137.673-6.116 1.864-8.817l-57.102 15.385s17.664 7.43 7.314 27.935z" fill="#d6d6d0"/><path d="m107.728 153.681c-24.101 0-57.501-3.71-82.054-6.946-2.837 5.684-5.46 11.493-7.858 17.418l61.035 12.792 39.716 6.056c9.642 1.47 19.493.486 28.655-2.86 11.134-4.067 27.12-10.013 41.361-15.709 11.262-4.505 16.423-9.789 18.693-14.239.143-.28.297-.552.449-.826-.153-.11-.292-.22-.449-.329-36.75-25.599-56.811 4.643-99.548 4.643z" fill="#363540"/><path d="m157.426 169.334c-15.854-8.043-6.314-24.816-6.314-24.816-12.485 4.202-26.075 9.163-43.385 9.163-24.101 0-57.501-3.71-82.054-6.946-2.837 5.684-5.46 11.493-7.858 17.418l61.035 12.792 39.716 6.056c9.642 1.47 19.493.486 28.655-2.86 4.182-1.527 9.049-3.32 14.25-5.265-.373-2.33-1.823-4.415-4.045-5.542z" fill="#21212b"/><ellipse cx="125.054" cy="299.574" fill="#c6c6c1" rx="23.101" ry="23.101" transform="matrix(.16 -.987 .987 .16 -190.684 375.027)"/><path d="m330.733 206.619-10.821-19.88c-6.516-11.971-16.791-21.466-29.238-27.019l-52.201-23.286c-4.645-2.072-9.832-2.602-14.8-1.512l-.036.008c-7.155 1.57-13.031 6.426-16.36 12.951-2.27 4.45-7.431 9.734-18.693 14.239-14.241 5.696-30.227 11.642-41.361 15.709-9.161 3.346-19.013 4.33-28.655 2.86l-39.716-6.056 34.84 38.117 31.68-7.117c7.966-1.79 16.166-2.304 24.294-1.525l153.027 14.677c6.586.634 11.204-6.353 8.04-12.166z" fill="#6ad394"/><path d="m161.299 178.084c.495-1.819.287-3.68-.478-5.276-4.955 1.85-9.594 3.559-13.6 5.022-9.161 3.346-19.013 4.33-28.655 2.86l-39.716-6.056 34.84 38.117 31.68-7.117c7.966-1.79 16.166-2.304 24.294-1.525l8.921.856c-19.634-5.664-19.451-18.914-17.286-26.881z" fill="#59b37d"/><path d="m10.648 184.377 103.042 28.375-34.84-38.117-60.166-12.61c-3.025 7.28-5.711 14.736-8.036 22.352z" fill="#eeefeb"/></svg>