<svg height="464pt" viewBox="-20 0 464 464" width="464pt" xmlns="http://www.w3.org/2000/svg"><path d="m32 0h288c17.671875 0 32 14.328125 32 32v400c0 17.671875-14.328125 32-32 32h-288c-17.671875 0-32-14.328125-32-32v-400c0-17.671875 14.328125-32 32-32zm0 0" fill="#e6e7e8"/><path d="m416 320c0 61.855469-50.144531 112-112 112s-112-50.144531-112-112 50.144531-112 112-112 112 50.144531 112 112zm0 0" fill="#ffd422"/><path d="m336 288v16c-.015625 8.484375-3.378906 16.621094-9.359375 22.640625-1.996094 1.945313-4.226563 3.640625-6.640625 5.039063-9.894531 5.714843-22.085938 5.714843-31.984375.007812s-16.003906-16.261719-16.015625-27.6875v-16h9.441406c9.484375.019531 18.761719-2.796875 26.636719-8.078125l11.921875-7.921875 3.601562 7.121094c2.355469 4.84375 7.039063 8.140625 12.398438 8.71875zm0 0" fill="#ffdaaa"/><path d="m331.601562 355.28125-27.601562 20.71875-27.601562-20.71875 11.601562-3.28125v-20.320312c9.890625 5.761718 22.109375 5.761718 32 0v20.320312zm0 0" fill="#ffdaaa"/><path d="m352.800781 361.359375-.800781-.238281-20.398438-5.839844-27.601562 20.71875-27.601562-20.71875-21.199219 6.078125c-13.746094 3.933594-23.214844 16.503906-23.199219 30.800781v13.519532c9.5 8.089843 20.324219 14.476562 32 18.878906 25.742188 9.921875 54.257812 9.921875 80 0 2.726562-.96875 5.398438-2.089844 8-3.359375 8.65625-4.078125 16.730469-9.296875 24-15.519531v-13.519532c.015625-14.296875-9.453125-26.867187-23.199219-30.800781zm0 0" fill="#3d9ae2"/><path d="m304 240c22.089844 0 40 17.910156 40 40v8h-6.078125c-.644531.027344-1.289063-.027344-1.921875-.160156-5.359375-.578125-10.042969-3.875-12.398438-8.71875l-3.601562-7.121094-11.921875 7.921875c-7.875 5.28125-17.152344 8.097656-26.636719 8.078125h-17.441406v-8c0-22.089844 17.910156-40 40-40zm0 0" fill="#3e3d42"/><path d="m312 0v80l-24-24-24 24v-80zm0 0" fill="#ff5023"/><path d="m320 331.679688v8c-9.890625 5.761718-22.109375 5.761718-32 0v-8c9.890625 5.761718 22.109375 5.761718 32 0zm0 0" fill="#f2cd9d"/><path d="m256 392h16v32.558594h-16zm0 0" fill="#1e81ce"/><path d="m336 392h16v32.558594h-16zm0 0" fill="#1e81ce"/><path d="m304 440c-66.273438 0-120-53.726562-120-120s53.726562-120 120-120 120 53.726562 120 120c-.074219 66.242188-53.757812 119.925781-120 120zm0-224c-57.4375 0-104 46.5625-104 104s46.5625 104 104 104 104-46.5625 104-104c-.066406-57.410156-46.589844-103.933594-104-104zm0 0" fill="#ff9811"/><path d="m224 312h16v16h-16zm0 0" fill="#ddb200"/><path d="m368 312h16v16h-16zm0 0" fill="#ddb200"/><path d="m40 40h32v16h-32zm0 0" fill="#c6c5ca"/><path d="m88 40h80v16h-80zm0 0" fill="#acabb1"/><path d="m40 72h128v16h-128zm0 0" fill="#acabb1"/><path d="m40 136h208v16h-208zm0 0" fill="#c6c5ca"/><path d="m264 136h48v16h-48zm0 0" fill="#acabb1"/><path d="m40 184h160v16h-160zm0 0" fill="#acabb1"/><path d="m40 232h128v16h-128zm0 0" fill="#c6c5ca"/><path d="m40 280h112v16h-112zm0 0" fill="#acabb1"/><path d="m40 360h80v16h-80zm0 0" fill="#c6c5ca"/><path d="m40 392h80v16h-80zm0 0" fill="#acabb1"/></svg>