<?xml version="1.0" encoding="iso-8859-1"?>
<!-- Generator: Adobe Illustrator 19.0.0, SVG Export Plug-In . SVG Version: 6.00 Build 0)  -->
<svg version="1.1" id="Layer_1" xmlns="http://www.w3.org/2000/svg" xmlns:xlink="http://www.w3.org/1999/xlink" x="0px" y="0px"
	 viewBox="0 0 512 512" style="enable-background:new 0 0 512 512;" xml:space="preserve">
<path style="fill:#EC5565;" d="M0,256.006C0,397.402,114.606,512.004,255.996,512C397.394,512.004,512,397.402,512,256.006
	C512.009,114.61,397.394,0,255.996,0C114.606,0,0,114.614,0,256.006z"/>
<path style="fill:#D94453;" d="M501.433,328.82l-77.826-77.826c0,0-139.766-139.76-139.769-139.761l-1.63-1.63
	c-2.762-2.762-7.235-2.762-9.998,0c-2.762,2.762-2.762,7.235,0,9.997l129.329,129.33H93.391c-3.904,0-7.07,3.166-7.07,7.07
	c0,2.375,1.248,4.374,3.045,5.657c0.457,0.641,237.646,237.83,238.287,238.287c0.397,0.557,0.884,1.003,1.418,1.418
	C411.772,476.771,476.926,411.555,501.433,328.82z"/>
<path style="fill:#F4F6F9;" d="M423.607,250.994L282.208,109.603c-2.762-2.762-7.235-2.762-9.997,0
	c-2.762,2.762-2.762,7.235,0,9.997l129.337,129.33H93.392c-3.904,0-7.07,3.166-7.07,7.07c0,3.904,3.166,7.07,7.07,7.07h308.143
	L272.211,392.4c-2.762,2.762-2.762,7.235,0,9.997c1.381,1.381,3.189,2.071,4.998,2.071s3.618-0.69,4.998-2.071l141.399-141.405
	c1.326-1.326,2.071-3.124,2.071-4.998C425.679,254.119,424.932,252.32,423.607,250.994z"/>
<g>
</g>
<g>
</g>
<g>
</g>
<g>
</g>
<g>
</g>
<g>
</g>
<g>
</g>
<g>
</g>
<g>
</g>
<g>
</g>
<g>
</g>
<g>
</g>
<g>
</g>
<g>
</g>
<g>
</g>
</svg>
