<svg id="Capa_1" enable-background="new 0 0 511.967 511.967" height="512" viewBox="0 0 511.967 511.967" width="512" xmlns="http://www.w3.org/2000/svg"><path d="m389.314 286.45 6.41-6.398c3.909-3.901 3.915-10.233.013-14.142-3.901-3.909-10.232-3.916-14.142-.013l-22.115 22.075-34.38-34.314 55.864-55.761c9.711 2.978 19.786 4.468 29.861 4.468 25.902 0 51.805-9.842 71.523-29.525 15.582-15.554 25.472-35.255 28.601-56.975 3.022-20.99-.738-42.834-10.593-61.507-1.481-2.808-4.207-4.745-7.346-5.22-3.143-.477-6.316.567-8.563 2.81l-55.857 55.756-24.061-24.018 55.831-55.73c2.251-2.246 3.299-5.43 2.823-8.573-.477-3.144-2.419-5.875-5.233-7.354-18.698-9.833-40.568-13.586-61.59-10.569-21.747 3.12-41.478 12.99-57.057 28.54-19.11 19.075-29.635 44.439-29.635 71.42 0 10.271 1.526 20.308 4.469 29.853l-113.114 112.907-177.783-177.459-1.882-44.925 45.046 1.881 121.563 121.137c3.909 3.898 10.242 3.887 14.142-.024 3.898-3.912 3.888-10.243-.024-14.142l-124.319-123.883c-1.772-1.767-4.142-2.804-6.642-2.908l-59.796-2.496c-2.818-.117-5.511.942-7.488 2.921-1.979 1.977-3.037 4.694-2.92 7.489l2.5 59.688c.105 2.508 1.149 4.885 2.927 6.658l180.521 180.191-55.865 55.762c-34.678-10.635-73.996-2.281-101.384 25.058-15.582 15.554-25.472 35.255-28.601 56.975-3.023 20.99.738 42.834 10.593 61.507 1.481 2.808 4.207 4.745 7.346 5.22 3.146.481 6.316-.567 8.563-2.81l55.857-55.756 24.061 24.018-55.831 55.73c-2.251 2.246-3.299 5.43-2.823 8.573.477 3.145 2.419 5.875 5.233 7.355 14.485 7.617 30.873 11.585 47.295 11.585 4.776 0 9.559-.336 14.295-1.016 21.749-3.121 41.48-12.991 57.059-28.542 19.11-19.075 29.635-44.439 29.635-71.42 0-10.271-1.526-20.308-4.469-29.853l55.818-55.715 34.381 34.314-22.089 22.049c-3.909 3.901-3.915 10.233-.013 14.142 1.953 1.957 4.515 2.935 7.077 2.935 2.556 0 5.112-.974 7.065-2.923l6.435-6.424 100.472 100.291c14.169 14.143 32.78 21.215 51.392 21.215s37.223-7.071 51.392-21.215c13.733-13.708 21.297-31.936 21.297-51.325s-7.564-37.616-21.297-51.324zm-35.882-242.295c15.685-15.655 36.339-23.835 57.313-23.835 8.377 0 16.808 1.307 24.988 3.962l-52.422 52.327c-1.88 1.876-2.935 4.422-2.935 7.077s1.056 5.201 2.935 7.077l38.216 38.147c3.903 3.897 10.226 3.897 14.129 0l52.46-52.364c9.327 28.603 2.05 60.232-19.895 82.139-31.645 31.59-83.138 31.591-114.788 0-15.324-15.297-23.764-35.634-23.764-57.265-.001-21.631 8.439-41.968 23.763-57.265zm-194.897 423.658c-21.949 21.907-53.639 29.175-82.301 19.873l52.422-52.327c1.88-1.876 2.936-4.422 2.936-7.077s-1.056-5.201-2.936-7.077l-38.216-38.147c-3.903-3.897-10.226-3.897-14.129 0l-52.46 52.364c-9.327-28.602-2.05-60.232 19.895-82.139 31.646-31.589 83.14-31.59 114.788 0 15.324 15.297 23.764 35.634 23.764 57.265.001 21.631-8.438 41.968-23.763 57.265zm14.129-128.685c-6.659-6.647-14.022-12.171-21.853-16.573l171.847-171.531c4.471 7.893 10.046 15.229 16.644 21.815 6.659 6.646 14.022 12.171 21.853 16.573l-171.847 171.532c-4.471-7.894-10.046-15.23-16.644-21.816zm138.281-71.34 34.38 34.313-43.141 43.063-34.381-34.314zm162.847 207.915c-8.626 8.597-20.019 14.047-32.175 14.79-14.556.89-29.414-4.204-40.513-15.283l-100.445-100.265 74.5-74.365 100.471 100.29c9.947 9.93 15.426 23.131 15.426 37.17 0 .666-.012 1.33-.037 1.992-.468 12.624-6.04 24.523-14.988 33.44z"/><path d="m226.864 179.564c-4.172 0-8.013-2.699-9.415-6.63-1.394-3.906-.177-8.413 3.026-11.06 3.103-2.564 7.545-3.008 11.096-1.122 3.683 1.956 5.806 6.157 5.177 10.284-.736 4.835-4.982 8.528-9.884 8.528z"/></svg>