<svg id="Layer_1" enable-background="new 0 0 512.118 512.118" height="512" viewBox="0 0 512.118 512.118" width="512" xmlns="http://www.w3.org/2000/svg"><path d="m377.389 281.661c12.555 0 20.146-6.168 22.562-18.343 5.473-27.767 13.674-35.607 27.26-48.597 2.581-2.467 5.249-5.019 8.129-7.918 5.272-5.314 6.726-12.993 3.791-20.039-2.708-6.502-8.385-10.703-14.461-10.703h-59.773v-25.389h12.493c12.551 0 20.142-6.178 22.562-18.372 5.469-27.746 13.66-35.574 27.231-48.543 2.589-2.475 5.267-5.034 8.156-7.944 5.273-5.314 6.727-12.992 3.792-20.038-2.708-6.502-8.385-10.704-14.461-10.704h-59.773v-13.049c-.002-17.657-14.373-32.022-32.037-32.022h-61.121c-4.175 0-7.559 3.384-7.559 7.559s3.384 7.559 7.559 7.559h61.121c9.328 0 16.918 7.583 16.918 16.904v393.677c0 9.337-7.59 16.933-16.918 16.933h-59.901c-4.175 0-7.559 3.384-7.559 7.559s3.384 7.559 7.559 7.559h37.084v33.713c0 3.001-2.539 5.537-5.545 5.537h-96.857c-3.005 0-5.544-2.536-5.544-5.537v-33.713h36.203c4.175 0 7.559-3.384 7.559-7.559s-3.384-7.559-7.559-7.559h-59.021c-9.344 0-16.946-7.596-16.946-16.933v-393.677c0-9.321 7.602-16.904 16.946-16.904h59.021c4.175 0 7.559-3.384 7.559-7.559s-3.384-7.559-7.559-7.559h-59.021c-17.68 0-32.064 14.365-32.064 32.022v13.049h-59.745c-6.085 0-11.77 4.209-14.483 10.723-2.932 7.041-1.481 14.711 3.791 20.024 2.885 2.901 5.56 5.454 8.146 7.923 13.59 12.972 21.793 20.801 27.262 48.55 2.389 12.196 9.971 18.38 22.535 18.38h12.493v25.389h-59.744c-6.085 0-11.77 4.209-14.483 10.723-2.932 7.041-1.481 14.711 3.791 20.025 2.875 2.891 5.54 5.436 8.118 7.897 13.605 12.992 21.818 20.834 27.291 48.604 2.386 12.177 9.967 18.352 22.535 18.352h12.493v25.417h-59.745c-6.089 0-11.775 4.207-14.486 10.717-2.927 7.029-1.476 14.691 3.791 19.998 2.893 2.914 5.574 5.476 8.167 7.954 13.581 12.979 21.779 20.814 27.245 48.551 2.385 12.177 9.967 18.352 22.535 18.352h12.493v13.049c0 17.673 14.384 32.051 32.064 32.051h7.7v33.713c0 11.389 9.269 20.655 20.663 20.655h96.857c11.394 0 20.662-9.266 20.662-20.655v-33.713h7.7c17.664 0 32.035-14.378 32.035-32.051v-13.049h12.493c12.555 0 20.146-6.168 22.562-18.343 5.467-27.734 13.652-35.567 27.214-48.544 2.597-2.484 5.28-5.052 8.174-7.971 5.271-5.311 6.725-12.98 3.795-20.015-2.706-6.499-8.384-10.698-14.464-10.698h-59.773v-25.417h12.492zm-242.667-146.108c-4.808 0-6.59-.505-7.701-6.176-6.397-32.461-17.545-43.101-31.658-56.572-2.517-2.402-5.119-4.885-7.859-7.642-.5-.504-1.047-1.251-.842-2.568.187-1.2.867-2.085 1.255-2.406h59.299v75.364zm0 130.989c-4.813 0-6.595-.503-7.701-6.148-6.401-32.479-17.559-43.134-31.684-56.623-2.509-2.396-5.102-4.872-7.833-7.618-.5-.504-1.048-1.251-.843-2.569.187-1.2.867-2.085 1.255-2.406h59.299v75.364zm0 130.99c-4.813 0-6.595-.503-7.701-6.148-6.394-32.444-17.532-43.088-31.634-56.565-2.522-2.411-5.131-4.904-7.883-7.676-.5-.503-1.047-1.25-.842-2.559.187-1.191.864-2.069 1.25-2.387h59.304v75.335zm289.497-206.353c.384.322 1.055 1.203 1.238 2.394.204 1.323-.348 2.074-.849 2.579-2.739 2.759-5.335 5.241-7.846 7.642-14.105 13.486-25.247 24.138-31.643 56.591-1.123 5.654-2.91 6.158-7.731 6.158h-12.493v-75.364zm0-130.99c.384.322 1.055 1.203 1.238 2.394.204 1.323-.348 2.074-.849 2.579-2.748 2.769-5.354 5.258-7.872 7.665-14.093 13.467-25.224 24.105-31.616 56.54-1.128 5.68-2.914 6.187-7.731 6.187h-12.493v-75.365zm.005 262.007c.382.319 1.05 1.193 1.233 2.375.203 1.315-.348 2.065-.853 2.574-2.756 2.78-5.367 5.278-7.892 7.694-14.082 13.474-25.204 24.117-31.593 56.534-1.123 5.654-2.91 6.158-7.731 6.158h-12.493v-75.335z"/><path d="m294.33 244.31c0-21.721-17.666-39.393-39.381-39.393-21.731 0-39.41 17.671-39.41 39.393 0 21.705 17.679 39.364 39.41 39.364 21.715-.001 39.381-17.659 39.381-39.364zm-63.673 0c0-13.385 10.897-24.274 24.292-24.274 13.379 0 24.264 10.89 24.264 24.274 0 13.369-10.885 24.246-24.264 24.246-13.394-.001-24.292-10.877-24.292-24.246z"/><path d="m256.963 333.043c-21.731 0-39.41 17.671-39.41 39.393 0 21.705 17.679 39.364 39.41 39.364 21.715 0 39.381-17.659 39.381-39.364 0-21.721-17.666-39.393-39.381-39.393zm0 63.639c-13.395 0-24.292-10.876-24.292-24.246 0-13.385 10.897-24.274 24.292-24.274 13.379 0 24.264 10.89 24.264 24.274 0 13.369-10.885 24.246-24.264 24.246z"/><path d="m308.359 349.864c1.007 0 2.03-.203 3.012-.63 3.828-1.666 5.581-6.119 3.916-9.947-10.11-23.234-33.004-38.247-58.324-38.247-25.337 0-48.242 15.013-58.352 38.247-1.666 3.828.087 8.282 3.915 9.947 3.829 1.665 8.282-.087 9.947-3.915 7.708-17.714 25.172-29.161 44.49-29.161 19.301 0 36.753 11.446 44.461 29.161 1.239 2.847 4.017 4.545 6.935 4.545z"/><path d="m254.949 172.914c-25.368 0-48.263 15.018-58.329 38.259-1.659 3.831.102 8.281 3.933 9.94.979.424 1.998.625 3 .625 2.922 0 5.705-1.705 6.94-4.557 7.669-17.707 25.119-29.149 44.456-29.149 19.312 0 36.764 11.445 44.46 29.157 1.664 3.83 6.116 5.585 9.945 3.92 3.829-1.664 5.584-6.116 3.92-9.945-10.096-23.236-32.99-38.25-58.325-38.25z"/><path d="m292.316 116.155c0-21.705-17.666-39.364-39.381-39.364-21.731 0-39.41 17.659-39.41 39.364 0 21.721 17.679 39.392 39.41 39.392 21.715 0 39.381-17.672 39.381-39.392zm-63.673 0c0-13.369 10.897-24.246 24.292-24.246 13.379 0 24.264 10.876 24.264 24.246 0 13.385-10.885 24.274-24.264 24.274-13.394 0-24.292-10.889-24.292-24.274z"/><path d="m252.935 44.788c-25.368 0-48.263 15.018-58.329 38.259-1.659 3.831.102 8.281 3.933 9.94.979.424 1.998.625 3 .625 2.922 0 5.705-1.705 6.94-4.557 7.669-17.707 25.119-29.149 44.456-29.149 19.311 0 36.763 11.445 44.46 29.158 1.664 3.83 6.116 5.583 9.945 3.92 3.829-1.664 5.584-6.117 3.92-9.945-10.097-23.237-32.991-38.251-58.325-38.251z"/></svg>