<svg id="Layer_1" enable-background="new 0 0 512 512" height="512" viewBox="0 0 512 512" width="512" xmlns="http://www.w3.org/2000/svg"><g clip-rule="evenodd" fill-rule="evenodd"><path d="m151.568 46.431h-69.395c-6.521 0-12.575 11.272-5.498 18.397 18.979 19.07 31.408 25.552 38.631 62.172 2.164 11.038 8.744 12.644 15.587 12.644h5.293 15.382l33.513-51.746z" fill="#838383"/><path d="m151.568 181.374h-69.395c-6.521 0-12.575 11.272-5.498 18.397 18.979 19.069 31.408 25.581 38.631 62.2 2.164 11.038 8.744 12.615 15.587 12.615h5.293 15.382l27.694-47.161z" fill="#838383"/><path d="m151.568 316.346h-69.395c-6.521 0-12.575 11.243-5.498 18.368 18.979 19.098 31.408 25.581 38.631 62.2 2.164 11.038 8.744 12.615 15.587 12.615h5.293 15.382l27.694-47.512z" fill="#838383"/><path d="m360.425 316.346-25.793 39.978 25.793 53.206h15.411 5.264c6.872 0 13.423-1.577 15.616-12.615 7.223-36.619 19.652-43.102 38.601-62.2 7.077-7.125 1.053-18.368-5.469-18.368h-69.423z" fill="#838383"/><path d="m360.425 181.374-23.717 47.191 23.717 46.022h15.411 5.264c6.872 0 13.423-1.577 15.616-12.615 7.223-36.619 19.652-43.131 38.601-62.2 7.077-7.125 1.053-18.397-5.469-18.397h-69.423z" fill="#838383"/><path d="m360.425 46.431-28.893 44.095 28.893 49.118h15.411 5.264c6.872 0 13.423-1.606 15.616-12.644 7.223-36.619 19.652-43.102 38.601-62.171 7.077-7.125 1.053-18.397-5.469-18.397h-69.423z" fill="#838383"/><path d="m319.455 455.99-60.505-35.043-66.383 35.043v42.518c0 7.417 6.083 13.491 13.511 13.491h99.867c7.428 0 13.511-6.074 13.511-13.491v-42.518z" fill="#ffd659"/><path d="m151.568 388.592h-38.134c.673 2.599 1.287 5.373 1.872 8.323 2.164 11.038 8.744 12.615 15.587 12.615h5.293 15.382z" fill="#595959"/><path d="m361.449 386.869h38.163c-.673 2.599-2.31 7.096-2.895 10.045-2.193 11.038-8.744 12.615-15.616 12.615h-5.264-15.411z" fill="#595959"/><path d="m151.568 253.649h-38.134c.673 2.599 1.287 5.344 1.872 8.323 2.164 11.038 8.744 12.615 15.587 12.615h5.293 15.382z" fill="#595959"/><path d="m360.425 253.649h38.134c-.643 2.599-1.257 5.344-1.842 8.323-2.193 11.038-8.744 12.615-15.616 12.615h-5.264-15.411v-20.938z" fill="#595959"/><path d="m151.568 118.677h-38.134c.673 2.599 1.287 5.373 1.872 8.323 2.164 11.038 8.744 12.644 15.587 12.644h5.293 15.382z" fill="#595959"/><path d="m360.425 118.677h38.134c-.643 2.599-1.257 5.373-1.842 8.323-2.193 11.038-8.744 12.644-15.616 12.644h-5.264-15.411v-20.967z" fill="#595959"/><path d="m151.568 46.431v93.213 41.73 93.213 41.759 93.184 21.23c0 13.871 11.376 25.231 25.266 25.231h15.733 126.888 15.733c13.891 0 25.237-11.36 25.237-25.231v-21.23-93.184-41.759-93.213-41.73-93.213-21.23c0-13.871-11.346-25.201-25.237-25.201h-158.354c-13.891 0-25.266 11.33-25.266 25.201z" fill="#ececec"/><path d="m335.188 0h-39.245c13.861 0 25.237 11.33 25.237 25.201v21.23 93.213 41.73 93.213 41.759 93.184 21.23c0 13.871-11.376 25.231-25.237 25.231h23.512 15.733c13.891 0 25.237-11.36 25.237-25.231v-21.23-20.938-72.246-41.759-20.938-72.275-41.73-20.967-72.246-21.23c0-13.871-11.346-25.201-25.237-25.201z" fill="#cecece"/><path d="m295.943 455.99h-30.706v42.518c0 7.417-6.053 13.491-13.511 13.491h54.217c7.428 0 13.511-6.074 13.511-13.491v-42.518z" fill="#ffbf00"/><path d="m252.78 79.108c-18.131 0-32.84 14.659-32.84 32.765 0 18.105 14.709 32.794 32.84 32.794s32.811-14.689 32.811-32.794-14.68-32.765-32.811-32.765z" fill="#fe636e"/><path d="m254.856 211.102c-18.131 0-32.84 14.689-32.84 32.794s14.709 32.765 32.84 32.765 32.811-14.659 32.811-32.765-14.68-32.794-32.811-32.794z" fill="#ffd659"/><path d="m256.932 343.095c-18.131 0-32.84 14.689-32.84 32.794s14.71 32.765 32.84 32.765c18.102 0 32.811-14.659 32.811-32.765.001-18.105-14.709-32.794-32.811-32.794z" fill="#80d261"/><path d="m283.076 99.229c-4.971 11.827-16.669 20.149-30.296 20.149-13.657 0-25.354-8.323-30.296-20.149-1.638 3.913-2.544 8.177-2.544 12.645 0 18.105 14.709 32.794 32.84 32.794s32.811-14.689 32.811-32.794c0-4.469-.907-8.732-2.515-12.645z" fill="#fb2a39"/><path d="m254.856 251.371c-13.657 0-25.354-8.293-30.296-20.12-1.638 3.884-2.544 8.147-2.544 12.645 0 18.105 14.709 32.765 32.84 32.765s32.811-14.659 32.811-32.765c0-4.497-.907-8.761-2.515-12.645-4.971 11.827-16.669 20.12-30.296 20.12z" fill="#ffbf00"/><path d="m287.199 363.245c-4.942 11.827-16.64 20.12-30.267 20.12-13.657 0-25.354-8.293-30.296-20.12-1.638 3.884-2.544 8.147-2.544 12.645 0 18.105 14.71 32.765 32.84 32.765 18.102 0 32.811-14.659 32.811-32.765.001-4.498-.906-8.762-2.544-12.645z" fill="#4fc122"/></g><path d="m309.926 352.636c-3.009 0-5.873-1.75-7.151-4.682-7.948-18.249-25.942-30.041-45.842-30.041-19.918 0-37.924 11.792-45.872 30.041-1.717 3.943-6.309 5.749-10.256 4.033s-5.754-6.304-4.037-10.247c10.425-23.935 34.041-39.401 60.165-39.401 26.107 0 49.712 15.466 60.137 39.401 1.717 3.944-.091 8.532-4.038 10.247-1.013.441-2.068.649-3.106.649z" fill="#838383"/><path d="m201.863 220.643c-1.034 0-2.084-.207-3.093-.643-3.95-1.709-5.766-6.294-4.055-10.24 10.379-23.943 33.986-39.414 60.142-39.414 26.122 0 49.727 15.467 60.138 39.405 1.716 3.944-.094 8.531-4.042 10.245-3.948 1.715-8.539-.094-10.254-4.039-7.935-18.247-25.93-30.037-45.841-30.037-19.938 0-37.93 11.787-45.837 30.029-1.276 2.938-4.145 4.694-7.158 4.694z" fill="#838383"/><path d="m199.786 88.65c-1.034 0-2.084-.207-3.093-.643-3.95-1.709-5.766-6.294-4.055-10.24 10.379-23.943 33.986-39.414 60.142-39.414 26.121 0 49.726 15.467 60.138 39.405 1.716 3.944-.094 8.531-4.042 10.245-3.948 1.713-8.539-.093-10.254-4.038-7.936-18.247-25.931-30.038-45.841-30.038-19.938 0-37.93 11.787-45.837 30.029-1.275 2.938-4.144 4.694-7.158 4.694z" fill="#838383"/></svg>