<svg height="512" viewBox="0 0 64 64" width="512" xmlns="http://www.w3.org/2000/svg"><path d="m60.341 9.525-7.891 7.892-4.95-.707-.707-4.95 7.891-7.891a9.986 9.986 0 0 0 -13.541 10.712l-21.927 21.928-4.543 4.542a9.988 9.988 0 0 0 -10.713 13.541l7.892-7.892 4.95.707.707 4.95-7.892 7.892a9.986 9.986 0 0 0 13.541-10.713l26.47-26.469a9.987 9.987 0 0 0 10.713-13.542z" fill="#ffcd00"/><path d="m8.2 45.873a9.94 9.94 0 0 1 7.24-2.922 3.022 3.022 0 0 0 2.209-.871l3.572-3.571 21.256-21.262a1.93 1.93 0 0 0 .583-1.473 9.946 9.946 0 0 1 10.286-10.567l1.338-1.338a9.986 9.986 0 0 0 -13.541 10.712l-21.927 21.928-4.543 4.542a9.988 9.988 0 0 0 -10.713 13.541l1.34-1.338a9.933 9.933 0 0 1 2.9-7.381z" fill="#ddb200"/><path d="m24.165 41.458.002.002-.709-.709z" fill="#ffa087"/><path d="m53.727 42.736a8 8 0 0 1 -2.294-4.774l-.8-7.15a8 8 0 0 0 -2.294-4.773l-3.607-3.612a4 4 0 0 0 -5.659 0l-4.949 4.948a1 1 0 0 0 0 1.415l.213.212.3.31a2.8 2.8 0 0 1 -.58.835 3.007 3.007 0 0 1 -4.243 0l1.415 1.414a3 3 0 0 1 -4.235 4.239l1.414 1.414a3 3 0 0 1 -4.241 4.244l20.833 20.542h16l.049-11.943z" fill="#ffcabd"/><path d="m56.165 42.458.002.002-.709-.709z" fill="#ffdaaa"/><path d="m29.822 30.145h.001l-2.829-2.829z" fill="#ffb655"/><path d="m26.994 35.802-2.829-2.829z" fill="#ffb655"/><rect fill="#ffbcab" height="6" rx="3" transform="matrix(.707 .707 -.707 .707 28.808 -9.258)" width="16" x="17.58" y="27.145"/><rect fill="#ffc3b4" height="6" rx="3" transform="matrix(.707 .707 -.707 .707 25.636 -12.915)" width="16" x="20.408" y="21.488"/><rect fill="#ffbcab" height="6" rx="3" transform="matrix(.707 .707 -.707 .707 25.293 -17.744)" width="16" x="26.065" y="18.659"/><rect fill="#ffc3b4" height="6" rx="3" transform="matrix(.707 .707 -.707 .707 31.979 -5.602)" width="16" x="14.751" y="32.802"/><path d="m41.2 30.206a3.99 3.99 0 0 1 -5.643 0l-.906-.9a2.8 2.8 0 0 1 -.58.835 3.007 3.007 0 0 1 -4.243 0l1.415 1.414a3 3 0 0 1 -4.249 4.245l1.414 1.414a3 3 0 0 1 -4.241 4.244l3.533 3.535 14.84-14.838a1 1 0 0 0 -1.34.051z" fill="#ffcd00"/><path d="m47.501 25.194-2.764-2.767z" fill="#ffb655"/><path d="m44.737 22.427a4 4 0 0 0 -5.659 0l-4.949 4.948a1 1 0 0 0 0 1.415l1.422 1.421a3.99 3.99 0 0 0 5.643 0 1 1 0 0 1 1.344-.051l4.962-4.966z" fill="#ffcabd"/></svg>